<?xml version="1.0" encoding="UTF-8"?>
<!DOCTYPE svg PUBLIC "-//W3C//DTD SVG 1.1//EN" "http://www.w3.org/Graphics/SVG/1.1/DTD/svg11.dtd">
<svg xmlns="http://www.w3.org/2000/svg" version="1.1" width="640px" height="640px" style="shape-rendering:geometricPrecision; text-rendering:geometricPrecision; image-rendering:optimizeQuality; fill-rule:evenodd; clip-rule:evenodd" xmlns:xlink="http://www.w3.org/1999/xlink">
<g><path style="opacity:1" fill="#fefefe" d="M -0.5,-0.5 C 212.833,-0.5 426.167,-0.5 639.5,-0.5C 639.5,212.833 639.5,426.167 639.5,639.5C 426.167,639.5 212.833,639.5 -0.5,639.5C -0.5,426.167 -0.5,212.833 -0.5,-0.5 Z"/></g>
<g><path style="opacity:1" fill="#f8e9bf" d="M 279.5,223.5 C 279.167,223.5 278.833,223.5 278.5,223.5C 278.824,220.306 277.658,219.306 275,220.5C 274.503,223.146 274.336,225.813 274.5,228.5C 273.357,225.024 273.19,221.358 274,217.5C 275.494,216.253 276.994,216.253 278.5,217.5C 279.348,219.409 279.682,221.409 279.5,223.5 Z"/></g>
<g><path style="opacity:1" fill="#f4da98" d="M 311.5,215.5 C 311.741,217.898 311.074,219.898 309.5,221.5C 309.259,219.102 309.926,217.102 311.5,215.5 Z"/></g>
<g><path style="opacity:1" fill="#f1deaf" d="M 351.5,233.5 C 351.666,228.489 351.499,223.489 351,218.5C 350.292,219.381 349.458,220.047 348.5,220.5C 348.948,217.513 350.448,216.513 353,217.5C 353.923,223.105 353.423,228.439 351.5,233.5 Z"/></g>
<g><path style="opacity:1" fill="#dda63b" d="M 278.5,223.5 C 277.849,222.909 277.182,222.243 276.5,221.5C 275.513,224.768 275.18,228.102 275.5,231.5C 274.596,230.791 274.263,229.791 274.5,228.5C 274.336,225.813 274.503,223.146 275,220.5C 277.658,219.306 278.824,220.306 278.5,223.5 Z"/></g>
<g><path style="opacity:1" fill="#fbf1cd" d="M 386.5,237.5 C 388.228,232.879 387.228,231.879 383.5,234.5C 383.787,231.516 385.454,230.183 388.5,230.5C 389.01,233.388 388.344,235.721 386.5,237.5 Z"/></g>
<g><path style="opacity:1" fill="#e9a84e" d="M 347.5,223.5 C 347.408,227.684 345.741,231.017 342.5,233.5C 343.332,229.691 344.999,226.357 347.5,223.5 Z"/></g>
<g><path style="opacity:1" fill="#e5ac4b" d="M 386.5,237.5 C 385.896,241.701 384.73,245.701 383,249.5C 382.292,250.381 381.458,251.047 380.5,251.5C 380.76,246.684 382.093,242.184 384.5,238C 384.167,237.5 383.833,237 383.5,236.5C 382.148,237.524 380.815,238.524 379.5,239.5C 380.111,237.225 381.445,235.559 383.5,234.5C 387.228,231.879 388.228,232.879 386.5,237.5 Z"/></g>
<g><path style="opacity:1" fill="#f69d18" d="M 351.5,233.5 C 350.047,245.656 345.714,256.656 338.5,266.5C 337.186,261.348 337.186,256.348 338.5,251.5C 340.678,245.804 342.011,239.804 342.5,233.5C 345.741,231.017 347.408,227.684 347.5,223.5C 347.263,222.209 347.596,221.209 348.5,220.5C 349.458,220.047 350.292,219.381 351,218.5C 351.499,223.489 351.666,228.489 351.5,233.5 Z"/></g>
<g><path style="opacity:1" fill="#e7ad49" d="M 342.5,233.5 C 342.011,239.804 340.678,245.804 338.5,251.5C 338.286,245.036 339.619,239.036 342.5,233.5 Z"/></g>
<g><path style="opacity:1" fill="#f1a22f" d="M 251.5,245.5 C 248.047,242.397 245.713,243.064 244.5,247.5C 244.167,247.5 243.833,247.5 243.5,247.5C 241.047,243.231 239.714,238.564 239.5,233.5C 240.552,233.351 241.552,233.517 242.5,234C 246.12,237.441 249.12,241.275 251.5,245.5 Z"/></g>
<g><path style="opacity:1" fill="#e6c175" d="M 378.5,239.5 C 377.99,242.674 376.323,245.008 373.5,246.5C 374.786,243.883 376.453,241.55 378.5,239.5 Z"/></g>
<g><path style="opacity:1" fill="#f59d18" d="M 380.5,251.5 C 379.341,255.151 377.674,258.485 375.5,261.5C 373.674,263.147 372.34,265.147 371.5,267.5C 368.862,270.474 366.195,273.474 363.5,276.5C 361.744,275.448 361.077,273.781 361.5,271.5C 361.595,269.214 362.262,267.214 363.5,265.5C 364.34,262.639 365.673,259.973 367.5,257.5C 367.328,256.508 367.662,255.842 368.5,255.5C 369.478,253.468 370.978,251.802 373,250.5C 373.49,249.207 373.657,247.873 373.5,246.5C 376.323,245.008 377.99,242.674 378.5,239.5C 378.833,239.5 379.167,239.5 379.5,239.5C 380.815,238.524 382.148,237.524 383.5,236.5C 383.833,237 384.167,237.5 384.5,238C 382.093,242.184 380.76,246.684 380.5,251.5 Z"/></g>
<g><path style="opacity:1" fill="#fa9b07" d="M 309.5,249.5 C 309.5,248.833 309.5,248.167 309.5,247.5C 309.335,240.808 309.668,234.141 310.5,227.5C 310.938,224.624 311.938,221.957 313.5,219.5C 315.015,221.547 315.849,223.881 316,226.5C 317.243,237.767 316.409,248.767 313.5,259.5C 312.343,255.929 311.01,252.596 309.5,249.5 Z"/></g>
<g><path style="opacity:1" fill="#e8b85f" d="M 373.5,246.5 C 373.657,247.873 373.49,249.207 373,250.5C 370.978,251.802 369.478,253.468 368.5,255.5C 368.861,251.778 370.528,248.778 373.5,246.5 Z"/></g>
<g><path style="opacity:1" fill="#f7e4b9" d="M 275.5,239.5 C 277.911,244.51 279.578,249.843 280.5,255.5C 279.685,254.571 278.852,253.571 278,252.5C 277.147,248.143 276.313,243.809 275.5,239.5 Z"/></g>
<g><path style="opacity:1" fill="#eaa843" d="M 315.5,260.5 C 314.518,261.141 313.518,261.807 312.5,262.5C 311.641,260 310.641,257.667 309.5,255.5C 309.5,253.5 309.5,251.5 309.5,249.5C 311.01,252.596 312.343,255.929 313.5,259.5C 316.409,248.767 317.243,237.767 316,226.5C 315.849,223.881 315.015,221.547 313.5,219.5C 311.938,221.957 310.938,224.624 310.5,227.5C 309.668,234.141 309.335,240.808 309.5,247.5C 308.212,238.962 308.212,230.295 309.5,221.5C 311.074,219.898 311.741,217.898 311.5,215.5C 311.5,214.5 311.5,213.5 311.5,212.5C 312.5,212.5 313.5,212.5 314.5,212.5C 314.482,216.446 315.482,220.112 317.5,223.5C 317.833,227.5 318.167,231.5 318.5,235.5C 318.627,243.983 317.627,252.317 315.5,260.5 Z"/></g>
<g><path style="opacity:1" fill="#f69d13" d="M 251.5,245.5 C 252.794,246.29 253.961,247.29 255,248.5C 256.411,251.579 257.911,254.579 259.5,257.5C 259.5,258.167 259.5,258.833 259.5,259.5C 260.135,262.493 260.301,265.493 260,268.5C 258.644,267.62 257.144,267.286 255.5,267.5C 252.415,263.754 249.749,259.754 247.5,255.5C 246.5,252.833 245.5,250.167 244.5,247.5C 245.713,243.064 248.047,242.397 251.5,245.5 Z"/></g>
<g><path style="opacity:1" fill="#fbe2bd" d="M 243.5,247.5 C 243.833,247.5 244.167,247.5 244.5,247.5C 245.5,250.167 246.5,252.833 247.5,255.5C 246.5,255.5 245.5,255.5 244.5,255.5C 244.167,252.833 243.833,250.167 243.5,247.5 Z"/></g>
<g><path style="opacity:1" fill="#f49e1a" d="M 278.5,223.5 C 278.833,223.5 279.167,223.5 279.5,223.5C 283.284,230.406 285.951,237.74 287.5,245.5C 288.593,252.45 288.76,259.45 288,266.5C 287.292,265.619 286.458,264.953 285.5,264.5C 284.59,261.008 282.924,258.008 280.5,255.5C 279.578,249.843 277.911,244.51 275.5,239.5C 275.5,236.833 275.5,234.167 275.5,231.5C 275.18,228.102 275.513,224.768 276.5,221.5C 277.182,222.243 277.849,222.909 278.5,223.5 Z"/></g>
<g><path style="opacity:1" fill="#e1b671" d="M 212.5,257.5 C 211.167,257.5 210.5,258.167 210.5,259.5C 208.623,258.171 208.456,256.838 210,255.5C 211.301,255.639 212.134,256.305 212.5,257.5 Z"/></g>
<g><path style="opacity:1" fill="#f5ca8c" d="M 287.5,245.5 C 288.117,245.611 288.617,245.944 289,246.5C 289.667,253.5 289.667,260.5 289,267.5C 286.995,268.032 285.829,267.032 285.5,264.5C 286.458,264.953 287.292,265.619 288,266.5C 288.76,259.45 288.593,252.45 287.5,245.5 Z"/></g>
<g><path style="opacity:1" fill="#f6e4c2" d="M 410.5,268.5 C 412.413,265.678 414.079,262.678 415.5,259.5C 415.253,258.287 414.586,257.62 413.5,257.5C 414.918,255.692 416.918,255.025 419.5,255.5C 419.805,259.227 418.305,261.894 415,263.5C 414.51,264.793 414.343,266.127 414.5,267.5C 413.041,267.433 411.708,267.766 410.5,268.5 Z"/></g>
<g><path style="opacity:1" fill="#f8e1c1" d="M 259.5,257.5 C 262.613,259.64 263.946,262.64 263.5,266.5C 261.794,264.388 260.461,262.055 259.5,259.5C 259.5,258.833 259.5,258.167 259.5,257.5 Z"/></g>
<g><path style="opacity:1" fill="#f7ddaa" d="M 367.5,257.5 C 365.673,259.973 364.34,262.639 363.5,265.5C 362.774,261.74 364.107,259.073 367.5,257.5 Z"/></g>
<g><path style="opacity:1" fill="#fbf1d8" d="M 309.5,255.5 C 310.641,257.667 311.641,260 312.5,262.5C 313.518,261.807 314.518,261.141 315.5,260.5C 315.657,261.873 315.49,263.207 315,264.5C 312.495,266.196 310.995,268.53 310.5,271.5C 310.679,266.195 310.345,260.861 309.5,255.5 Z"/></g>
<g><path style="opacity:1" fill="#f49d10" d="M 413.5,257.5 C 414.586,257.62 415.253,258.287 415.5,259.5C 414.079,262.678 412.413,265.678 410.5,268.5C 406.862,272.474 403.195,276.474 399.5,280.5C 397.804,280.685 396.471,281.519 395.5,283C 393.866,283.494 392.199,283.66 390.5,283.5C 390.5,284.833 390.5,286.167 390.5,287.5C 390.167,287.5 389.833,287.5 389.5,287.5C 388.5,287.5 387.5,287.5 386.5,287.5C 386.584,284.673 387.25,282.006 388.5,279.5C 391.647,277.687 393.647,275.02 394.5,271.5C 396.5,270.167 398.167,268.5 399.5,266.5C 400.873,266.657 402.207,266.49 403.5,266C 405.396,263.932 407.396,262.099 409.5,260.5C 410.795,259.512 412.128,258.512 413.5,257.5 Z"/></g>
<g><path style="opacity:1" fill="#e8b355" d="M 409.5,260.5 C 407.396,262.099 405.396,263.932 403.5,266C 402.207,266.49 400.873,266.657 399.5,266.5C 401.469,264.841 403.469,263.175 405.5,261.5C 406.689,260.571 408.022,260.238 409.5,260.5 Z"/></g>
<g><path style="opacity:1" fill="#f2cb8d" d="M 375.5,261.5 C 375.155,264.198 373.822,266.198 371.5,267.5C 372.34,265.147 373.674,263.147 375.5,261.5 Z"/></g>
<g><path style="opacity:1" fill="#eca230" d="M 259.5,259.5 C 260.461,262.055 261.794,264.388 263.5,266.5C 264.294,269.802 264.96,273.135 265.5,276.5C 264.448,276.649 263.448,276.483 262.5,276C 259.901,273.249 257.568,270.416 255.5,267.5C 257.144,267.286 258.644,267.62 260,268.5C 260.301,265.493 260.135,262.493 259.5,259.5 Z"/></g>
<g><path style="opacity:1" fill="#f59e19" d="M 212.5,257.5 C 220.745,260.944 227.412,266.277 232.5,273.5C 232.5,274.833 232.5,276.167 232.5,277.5C 233.822,277.33 234.989,277.663 236,278.5C 238.031,281.471 239.864,284.637 241.5,288C 239.893,287.981 238.226,287.815 236.5,287.5C 236.586,286.504 236.252,285.671 235.5,285C 232.354,283.343 229.354,281.509 226.5,279.5C 224.973,279.573 223.973,278.906 223.5,277.5C 221.804,275.475 220.137,273.475 218.5,271.5C 215.846,267.537 213.18,263.537 210.5,259.5C 210.5,258.167 211.167,257.5 212.5,257.5 Z"/></g>
<g><path style="opacity:1" fill="#fce6b6" d="M 218.5,271.5 C 220.137,273.475 221.804,275.475 223.5,277.5C 220.081,276.958 218.414,274.958 218.5,271.5 Z"/></g>
<g><path style="opacity:1" fill="#e7cd8e" d="M 361.5,271.5 C 361.077,273.781 361.744,275.448 363.5,276.5C 362.791,277.404 361.791,277.737 360.5,277.5C 360.205,275.265 360.539,273.265 361.5,271.5 Z"/></g>
<g><path style="opacity:1" fill="#edb462" d="M 394.5,271.5 C 393.647,275.02 391.647,277.687 388.5,279.5C 390.186,276.496 392.186,273.83 394.5,271.5 Z"/></g>
<g><path style="opacity:1" fill="#f8d5a7" d="M 410.5,268.5 C 408.223,273.777 404.556,277.777 399.5,280.5C 403.195,276.474 406.862,272.474 410.5,268.5 Z"/></g>
<g><path style="opacity:1" fill="#e1b051" d="M 226.5,279.5 C 229.354,281.509 232.354,283.343 235.5,285C 236.252,285.671 236.586,286.504 236.5,287.5C 232.296,285.967 228.963,283.3 226.5,279.5 Z"/></g>
<g><path style="opacity:1" fill="#89b675" d="M 314.5,277.5 C 313.504,277.414 312.671,277.748 312,278.5C 309.896,282.922 309.063,287.588 309.5,292.5C 309.167,292.5 308.833,292.5 308.5,292.5C 307.802,286.939 308.802,281.773 311.5,277C 312.749,276.26 313.749,276.427 314.5,277.5 Z"/></g>
<g><path style="opacity:1" fill="#98c18c" d="M 330.5,279.5 C 331.542,278.209 332.708,278.209 334,279.5C 334.499,283.152 334.665,286.818 334.5,290.5C 334.167,290.5 333.833,290.5 333.5,290.5C 333.665,287.15 333.498,283.817 333,280.5C 332.329,279.748 331.496,279.414 330.5,279.5 Z"/></g>
<g><path style="opacity:1" fill="#ecab46" d="M 399.5,280.5 C 396.889,283.364 393.889,285.697 390.5,287.5C 390.5,286.167 390.5,284.833 390.5,283.5C 392.199,283.66 393.866,283.494 395.5,283C 396.471,281.519 397.804,280.685 399.5,280.5 Z"/></g>
<g><path style="opacity:1" fill="#61b945" d="M 314.5,277.5 C 315.338,277.842 315.672,278.508 315.5,279.5C 316.422,284.472 316.588,289.472 316,294.5C 315.167,295.5 314.333,296.5 313.5,297.5C 312.311,295.637 310.978,293.97 309.5,292.5C 309.063,287.588 309.896,282.922 312,278.5C 312.671,277.748 313.504,277.414 314.5,277.5 Z"/></g>
<g><path style="opacity:1" fill="#dac87e" d="M 191.5,287.5 C 189.517,287.157 188.183,287.824 187.5,289.5C 185.879,289.213 184.879,288.213 184.5,286.5C 185.667,286.167 186.833,285.833 188,285.5C 189.681,285.608 190.848,286.275 191.5,287.5 Z"/></g>
<g><path style="opacity:1" fill="#e5ac42" d="M 232.5,273.5 C 235.66,276.466 238.827,279.466 242,282.5C 242.99,285.955 244.156,289.288 245.5,292.5C 242.052,291.61 239.052,289.943 236.5,287.5C 238.226,287.815 239.893,287.981 241.5,288C 239.864,284.637 238.031,281.471 236,278.5C 234.989,277.663 233.822,277.33 232.5,277.5C 232.5,276.167 232.5,274.833 232.5,273.5 Z"/></g>
<g><path style="opacity:1" fill="#e5a643" d="M 388.5,279.5 C 387.25,282.006 386.584,284.673 386.5,287.5C 387.5,287.5 388.5,287.5 389.5,287.5C 387.487,289.497 385.154,291.164 382.5,292.5C 382.163,287.21 384.163,282.877 388.5,279.5 Z"/></g>
<g><path style="opacity:1" fill="#7db469" d="M 315.5,279.5 C 317.516,281.454 318.516,283.954 318.5,287C 318.519,290.652 317.852,294.152 316.5,297.5C 315.626,299.69 313.959,300.69 311.5,300.5C 310.833,297.833 310.167,295.167 309.5,292.5C 310.978,293.97 312.311,295.637 313.5,297.5C 314.333,296.5 315.167,295.5 316,294.5C 316.588,289.472 316.422,284.472 315.5,279.5 Z"/></g>
<g><path style="opacity:1" fill="#76b260" d="M 330.5,279.5 C 331.496,279.414 332.329,279.748 333,280.5C 333.498,283.817 333.665,287.15 333.5,290.5C 332.928,295.432 330.595,299.432 326.5,302.5C 325.818,301.757 325.151,301.091 324.5,300.5C 322.158,292.172 324.158,285.172 330.5,279.5 Z"/></g>
<g><path style="opacity:1" fill="#78b460" d="M 279.5,287.5 C 280.167,287.5 280.833,287.5 281.5,287.5C 283.909,289.902 285.909,292.569 287.5,295.5C 284.45,292.977 281.116,290.977 277.5,289.5C 278.707,294.197 280.04,298.864 281.5,303.5C 281.167,303.5 280.833,303.5 280.5,303.5C 279.312,301.278 278.312,298.945 277.5,296.5C 276.701,293.57 276.368,290.57 276.5,287.5C 277.5,287.5 278.5,287.5 279.5,287.5 Z"/></g>
<g><path style="opacity:1" fill="#61bb43" d="M 329.5,281.5 C 330.5,281.5 331.5,281.5 332.5,281.5C 333.317,287.728 331.984,293.395 328.5,298.5C 327.675,299.386 326.675,299.719 325.5,299.5C 325.336,296.813 325.503,294.146 326,291.5C 328.661,290.258 329.161,288.424 327.5,286C 328.044,284.415 328.711,282.915 329.5,281.5 Z"/></g>
<g><path style="opacity:1" fill="#8fb67f" d="M 351.5,289.5 C 350.833,291.5 350.167,293.5 349.5,295.5C 349.806,292.615 349.473,289.948 348.5,287.5C 347.833,287.5 347.167,287.5 346.5,287.5C 347.78,286.069 349.447,285.402 351.5,285.5C 351.5,286.833 351.5,288.167 351.5,289.5 Z"/></g>
<g><path style="opacity:1" fill="#edd096" d="M 431.5,296.5 C 433.912,293.583 436.579,290.749 439.5,288C 438.207,287.51 436.873,287.343 435.5,287.5C 437.483,285.022 439.816,284.855 442.5,287C 439.236,290.773 435.57,293.94 431.5,296.5 Z"/></g>
<g><path style="opacity:1" fill="#f2d18c" d="M 426.5,289.5 C 424.967,291.245 422.967,292.245 420.5,292.5C 422.033,290.755 424.033,289.755 426.5,289.5 Z"/></g>
<g><path style="opacity:1" fill="#f49e1c" d="M 191.5,287.5 C 204.422,291.287 215.755,297.62 225.5,306.5C 225.539,307.583 225.873,308.583 226.5,309.5C 225.667,309.833 224.833,310.167 224,310.5C 221.084,308.796 217.917,307.796 214.5,307.5C 204.04,303.765 195.04,297.765 187.5,289.5C 188.183,287.824 189.517,287.157 191.5,287.5 Z"/></g>
<g><path style="opacity:1" fill="#92be7d" d="M 345.5,287.5 C 345.768,289.099 345.434,290.432 344.5,291.5C 342.52,292.484 340.853,293.817 339.5,295.5C 339.5,294.833 339.5,294.167 339.5,293.5C 340.562,290.622 342.562,288.622 345.5,287.5 Z"/></g>
<g><path style="opacity:1" fill="#eff8ea" d="M 281.5,287.5 C 280.833,287.5 280.167,287.5 279.5,287.5C 278.817,285.824 277.483,285.157 275.5,285.5C 275.335,288.85 275.502,292.183 276,295.5C 276.383,296.056 276.883,296.389 277.5,296.5C 278.312,298.945 279.312,301.278 280.5,303.5C 279.127,303.343 277.793,303.51 276.5,304C 280.29,308.591 281.29,313.757 279.5,319.5C 277.625,318.591 276.292,317.257 275.5,315.5C 276.5,315.5 277.5,315.5 278.5,315.5C 278.795,313.265 278.461,311.265 277.5,309.5C 276.185,306.507 274.185,304.174 271.5,302.5C 268.755,298.963 265.088,297.296 260.5,297.5C 260.517,299.565 260.85,301.565 261.5,303.5C 260.5,303.5 259.5,303.5 258.5,303.5C 258.5,301.5 258.5,299.5 258.5,297.5C 257.5,297.5 256.5,297.5 255.5,297.5C 255.238,296.022 255.571,294.689 256.5,293.5C 260.183,295.653 264.183,296.986 268.5,297.5C 271.093,301.386 272.093,300.719 271.5,295.5C 272.552,295.649 273.552,295.483 274.5,295C 273.953,292.633 272.953,290.467 271.5,288.5C 272.885,287.449 273.885,286.116 274.5,284.5C 278.133,282.683 280.467,283.683 281.5,287.5 Z"/></g>
<g><path style="opacity:1" fill="#9ec28f" d="M 279.5,287.5 C 278.5,287.5 277.5,287.5 276.5,287.5C 276.368,290.57 276.701,293.57 277.5,296.5C 276.883,296.389 276.383,296.056 276,295.5C 275.502,292.183 275.335,288.85 275.5,285.5C 277.483,285.157 278.817,285.824 279.5,287.5 Z"/></g>
<g><path style="opacity:1" fill="#60bb43" d="M 345.5,287.5 C 345.833,287.5 346.167,287.5 346.5,287.5C 347.167,287.5 347.833,287.5 348.5,287.5C 349.595,295.324 346.595,300.657 339.5,303.5C 339.167,303.167 338.833,302.833 338.5,302.5C 339.768,298.296 341.768,294.63 344.5,291.5C 345.434,290.432 345.768,289.099 345.5,287.5 Z"/></g>
<g><path style="opacity:1" fill="#ecc786" d="M 415.5,295.5 C 413.777,297.218 411.777,298.551 409.5,299.5C 410.708,296.956 412.708,295.622 415.5,295.5 Z"/></g>
<g><path style="opacity:1" fill="#65b648" d="M 287.5,295.5 C 289.005,299.43 288.672,303.097 286.5,306.5C 284.589,305.925 282.922,304.925 281.5,303.5C 280.04,298.864 278.707,294.197 277.5,289.5C 281.116,290.977 284.45,292.977 287.5,295.5 Z"/></g>
<g><path style="opacity:1" fill="#e2f2d9" d="M 333.5,290.5 C 333.833,290.5 334.167,290.5 334.5,290.5C 334.665,293.85 334.498,297.183 334,300.5C 331.099,301.489 327.932,302.489 324.5,303.5C 324.5,302.5 324.5,301.5 324.5,300.5C 325.151,301.091 325.818,301.757 326.5,302.5C 330.595,299.432 332.928,295.432 333.5,290.5 Z"/></g>
<g><path style="opacity:1" fill="#f29e14" d="M 435.5,287.5 C 436.873,287.343 438.207,287.51 439.5,288C 436.579,290.749 433.912,293.583 431.5,296.5C 427.808,298.344 424.475,300.677 421.5,303.5C 419.181,303.992 417.181,304.992 415.5,306.5C 411.833,307.833 408.167,309.167 404.5,310.5C 402.219,310.923 400.552,310.256 399.5,308.5C 399.5,308.167 399.5,307.833 399.5,307.5C 400.552,307.649 401.552,307.483 402.5,307C 405.215,304.746 407.548,302.246 409.5,299.5C 411.777,298.551 413.777,297.218 415.5,295.5C 417.261,294.687 418.928,293.687 420.5,292.5C 422.967,292.245 424.967,291.245 426.5,289.5C 429.402,288.422 432.402,287.756 435.5,287.5 Z"/></g>
<g><path style="opacity:1" fill="#7ab163" d="M 271.5,302.5 C 268.833,301.5 266.167,300.5 263.5,299.5C 263.838,301.854 264.338,304.187 265,306.5C 267.127,308.114 268.627,310.114 269.5,312.5C 266.09,310.094 263.424,307.094 261.5,303.5C 260.85,301.565 260.517,299.565 260.5,297.5C 265.088,297.296 268.755,298.963 271.5,302.5 Z"/></g>
<g><path style="opacity:1" fill="#82b66e" d="M 292.5,289.5 C 291.362,286.696 291.195,283.696 292,280.5C 292.388,279.572 293.055,278.905 294,278.5C 296.54,280.534 298.873,282.868 301,285.5C 302.765,291.302 302.932,297.136 301.5,303C 299.633,303.711 298.133,303.211 297,301.5C 294.665,297.827 293.165,293.827 292.5,289.5 Z"/></g>
<g><path style="opacity:1" fill="#63b748" d="M 292.5,289.5 C 292.337,287.143 292.503,284.81 293,282.5C 294.183,281.269 295.349,281.269 296.5,282.5C 300.78,287.344 302.446,293.011 301.5,299.5C 299.339,299.174 297.506,298.174 296,296.5C 295.856,293.558 294.689,291.224 292.5,289.5 Z"/></g>
<g><path style="opacity:1" fill="#d6e9cb" d="M 308.5,292.5 C 308.833,292.5 309.167,292.5 309.5,292.5C 310.167,295.167 310.833,297.833 311.5,300.5C 313.959,300.69 315.626,299.69 316.5,297.5C 314.357,305.419 311.857,305.419 309,297.5C 308.506,295.866 308.34,294.199 308.5,292.5 Z"/></g>
<g><path style="opacity:1" fill="#e5f4df" d="M 351.5,289.5 C 351.5,290.833 351.5,292.167 351.5,293.5C 352.675,293.281 353.675,293.614 354.5,294.5C 353.564,295.974 352.23,296.974 350.5,297.5C 347.329,303.385 348.662,304.718 354.5,301.5C 350.27,305.174 347.936,309.841 347.5,315.5C 349.099,315.768 350.432,315.434 351.5,314.5C 352.5,314.5 353.5,314.5 354.5,314.5C 354.389,315.117 354.056,315.617 353.5,316C 350.854,316.497 348.187,316.664 345.5,316.5C 345.316,312.921 345.983,309.587 347.5,306.5C 344.053,308.09 340.387,309.09 336.5,309.5C 336.506,304.107 336.339,298.773 336,293.5C 337.145,294.684 338.312,294.684 339.5,293.5C 339.5,294.167 339.5,294.833 339.5,295.5C 337.857,299.3 337.19,303.3 337.5,307.5C 340.582,306.273 343.582,304.773 346.5,303C 347.273,300.403 348.273,297.903 349.5,295.5C 350.167,293.5 350.833,291.5 351.5,289.5 Z"/></g>
<g><path style="opacity:1" fill="#74b55e" d="M 348.5,287.5 C 349.473,289.948 349.806,292.615 349.5,295.5C 348.273,297.903 347.273,300.403 346.5,303C 343.582,304.773 340.582,306.273 337.5,307.5C 337.19,303.3 337.857,299.3 339.5,295.5C 340.853,293.817 342.52,292.484 344.5,291.5C 341.768,294.63 339.768,298.296 338.5,302.5C 338.833,302.833 339.167,303.167 339.5,303.5C 346.595,300.657 349.595,295.324 348.5,287.5 Z"/></g>
<g><path style="opacity:1" fill="#60bb43" d="M 363.5,303.5 C 359.91,307.626 355.91,311.293 351.5,314.5C 349.656,313.796 349.156,312.463 350,310.5C 351.028,308.639 352.528,307.305 354.5,306.5C 355.492,301.502 358.492,299.168 363.5,299.5C 363.5,300.833 363.5,302.167 363.5,303.5 Z"/></g>
<g><path style="opacity:1" fill="#e3b15e" d="M 409.5,299.5 C 407.548,302.246 405.215,304.746 402.5,307C 401.552,307.483 400.552,307.649 399.5,307.5C 401.912,303.762 405.246,301.095 409.5,299.5 Z"/></g>
<g><path style="opacity:1" fill="#fae0b0" d="M 421.5,303.5 C 420.313,305.975 418.313,306.975 415.5,306.5C 417.181,304.992 419.181,303.992 421.5,303.5 Z"/></g>
<g><path style="opacity:1" fill="#8bb77a" d="M 287.5,295.5 C 288.117,295.611 288.617,295.944 289,296.5C 289.499,300.152 289.665,303.818 289.5,307.5C 288.209,307.737 287.209,307.404 286.5,306.5C 288.672,303.097 289.005,299.43 287.5,295.5 Z"/></g>
<g><path style="opacity:1" fill="#63b944" d="M 271.5,302.5 C 274.185,304.174 276.185,306.507 277.5,309.5C 277.5,310.833 277.5,312.167 277.5,313.5C 274.833,313.167 272.167,312.833 269.5,312.5C 268.627,310.114 267.127,308.114 265,306.5C 264.338,304.187 263.838,301.854 263.5,299.5C 266.167,300.5 268.833,301.5 271.5,302.5 Z"/></g>
<g><path style="opacity:1" fill="#77b062" d="M 365.5,301.5 C 364.833,302.167 364.167,302.833 363.5,303.5C 363.5,302.167 363.5,300.833 363.5,299.5C 358.492,299.168 355.492,301.502 354.5,306.5C 352.528,307.305 351.028,308.639 350,310.5C 349.156,312.463 349.656,313.796 351.5,314.5C 350.432,315.434 349.099,315.768 347.5,315.5C 347.936,309.841 350.27,305.174 354.5,301.5C 357.405,298.22 361.071,296.887 365.5,297.5C 365.5,298.833 365.5,300.167 365.5,301.5 Z"/></g>
<g><path style="opacity:1" fill="#d2e9c5" d="M 365.5,301.5 C 364.393,307.944 360.726,312.278 354.5,314.5C 358.598,311.735 361.598,308.068 363.5,303.5C 364.167,302.833 364.833,302.167 365.5,301.5 Z"/></g>
<g><path style="opacity:1" fill="#fbfaeb" d="M 415.5,306.5 C 415.586,307.496 415.252,308.329 414.5,309C 418.841,309.77 423.008,309.27 427,307.5C 427.72,309.112 427.554,310.612 426.5,312C 421.453,311.517 416.453,311.35 411.5,311.5C 407.64,312.888 403.974,314.721 400.5,317C 400.957,317.414 401.291,317.914 401.5,318.5C 398.833,319.833 396.167,319.833 393.5,318.5C 395.396,317.534 397.396,317.201 399.5,317.5C 399.5,316.5 399.5,315.5 399.5,314.5C 395.212,314.442 393.879,312.442 395.5,308.5C 396.736,307.754 398.07,307.421 399.5,307.5C 399.5,307.833 399.5,308.167 399.5,308.5C 397.879,308.787 396.879,309.787 396.5,311.5C 397,311.833 397.5,312.167 398,312.5C 400.346,312.01 402.513,311.343 404.5,310.5C 408.167,309.167 411.833,307.833 415.5,306.5 Z"/></g>
<g><path style="opacity:1" fill="#ddae44" d="M 225.5,306.5 C 228.044,307.708 229.378,309.708 229.5,312.5C 223.825,312.447 218.825,310.781 214.5,307.5C 217.917,307.796 221.084,308.796 224,310.5C 224.833,310.167 225.667,309.833 226.5,309.5C 225.873,308.583 225.539,307.583 225.5,306.5 Z"/></g>
<g><path style="opacity:1" fill="#e7f6e3" d="M 263.5,315.5 C 259.181,313.041 254.515,312.041 249.5,312.5C 249.704,314.685 250.37,316.685 251.5,318.5C 248.368,316.864 245.701,314.698 243.5,312C 244.167,311.667 244.833,311.333 245.5,311C 250.725,311.041 255.725,310.208 260.5,308.5C 262.62,309.403 262.954,310.737 261.5,312.5C 262.612,313.265 263.279,314.265 263.5,315.5 Z"/></g>
<g><path style="opacity:1" fill="#73ab59" d="M 363.5,303.5 C 361.598,308.068 358.598,311.735 354.5,314.5C 353.5,314.5 352.5,314.5 351.5,314.5C 355.91,311.293 359.91,307.626 363.5,303.5 Z"/></g>
<g><path style="opacity:1" fill="#d1ae58" d="M 399.5,308.5 C 400.552,310.256 402.219,310.923 404.5,310.5C 402.513,311.343 400.346,312.01 398,312.5C 397.5,312.167 397,311.833 396.5,311.5C 396.879,309.787 397.879,308.787 399.5,308.5 Z"/></g>
<g><path style="opacity:1" fill="#7cb069" d="M 277.5,309.5 C 278.461,311.265 278.795,313.265 278.5,315.5C 277.5,315.5 276.5,315.5 275.5,315.5C 273.181,315.008 271.181,314.008 269.5,312.5C 272.167,312.833 274.833,313.167 277.5,313.5C 277.5,312.167 277.5,310.833 277.5,309.5 Z"/></g>
<g><path style="opacity:1" fill="#c0e2b2" d="M 363.5,314.5 C 362.167,316.5 360.5,318.167 358.5,319.5C 359.167,316.833 360.833,315.167 363.5,314.5 Z"/></g>
<g><path style="opacity:1" fill="#72b15b" d="M 375.5,316.5 C 375.5,315.5 375.5,314.5 375.5,313.5C 368.528,314.491 362.861,317.824 358.5,323.5C 359.333,323.833 360.167,324.167 361,324.5C 363.922,322.799 367.089,321.799 370.5,321.5C 368.388,323.771 365.721,325.104 362.5,325.5C 360.5,325.5 358.5,325.5 356.5,325.5C 356.704,323.315 357.37,321.315 358.5,319.5C 360.5,318.167 362.167,316.5 363.5,314.5C 367.975,312.427 372.642,312.093 377.5,313.5C 377.058,314.739 376.391,315.739 375.5,316.5 Z"/></g>
<g><path style="opacity:1" fill="#faefd4" d="M 184.5,321.5 C 179.381,320.897 174.715,321.564 170.5,323.5C 167.937,322.149 165.27,320.983 162.5,320C 169.996,319.926 177.329,320.426 184.5,321.5 Z"/></g>
<g><path style="opacity:1" fill="#63ba42" d="M 255.5,321.5 C 255.5,320.167 254.833,319.5 253.5,319.5C 252.85,317.565 252.517,315.565 252.5,313.5C 253.5,313.5 254.5,313.5 255.5,313.5C 255.354,315.942 256.187,316.609 258,315.5C 259.648,316.717 261.481,317.55 263.5,318C 265.253,319.999 266.587,322.165 267.5,324.5C 263.759,325.401 261.759,324.068 261.5,320.5C 259.435,320.517 257.435,320.85 255.5,321.5 Z"/></g>
<g><path style="opacity:1" fill="#63b849" d="M 375.5,316.5 C 374.5,318.833 372.833,320.5 370.5,321.5C 367.089,321.799 363.922,322.799 361,324.5C 360.167,324.167 359.333,323.833 358.5,323.5C 362.861,317.824 368.528,314.491 375.5,313.5C 375.5,314.5 375.5,315.5 375.5,316.5 Z"/></g>
<g><path style="opacity:1" fill="#f3daad" d="M 437.5,321.5 C 443.31,320.51 449.31,320.177 455.5,320.5C 455.843,322.483 455.176,323.817 453.5,324.5C 453.804,323.85 454.137,323.183 454.5,322.5C 448.872,321.505 443.206,321.171 437.5,321.5 Z"/></g>
<g><path style="opacity:1" fill="#e9be7e" d="M 184.5,321.5 C 188.458,321.251 192.124,321.918 195.5,323.5C 191.511,323.884 187.845,323.217 184.5,321.5 Z"/></g>
<g><path style="opacity:1" fill="#6db056" d="M 263.5,315.5 C 265.142,316.803 266.809,318.136 268.5,319.5C 269.15,321.435 269.483,323.435 269.5,325.5C 267.5,325.5 265.5,325.5 263.5,325.5C 262.833,325.5 262.167,325.5 261.5,325.5C 259.967,323.755 257.967,322.755 255.5,322.5C 255.5,322.167 255.5,321.833 255.5,321.5C 257.435,320.85 259.435,320.517 261.5,320.5C 261.759,324.068 263.759,325.401 267.5,324.5C 266.587,322.165 265.253,319.999 263.5,318C 261.481,317.55 259.648,316.717 258,315.5C 256.187,316.609 255.354,315.942 255.5,313.5C 254.5,313.5 253.5,313.5 252.5,313.5C 252.517,315.565 252.85,317.565 253.5,319.5C 252.508,319.672 251.842,319.338 251.5,318.5C 250.37,316.685 249.704,314.685 249.5,312.5C 254.515,312.041 259.181,313.041 263.5,315.5 Z"/></g>
<g><path style="opacity:1" fill="#f1d999" d="M 434.5,322.5 C 432.343,323.407 430.01,324.073 427.5,324.5C 427.611,323.883 427.944,323.383 428.5,323C 430.473,322.505 432.473,322.338 434.5,322.5 Z"/></g>
<g><path style="opacity:1" fill="#98c289" d="M 268.5,319.5 C 270.834,321.176 271.834,323.509 271.5,326.5C 268.615,326.806 265.948,326.473 263.5,325.5C 265.5,325.5 267.5,325.5 269.5,325.5C 269.483,323.435 269.15,321.435 268.5,319.5 Z"/></g>
<g><path style="opacity:1" fill="#b0d7a8" d="M 255.5,322.5 C 257.967,322.755 259.967,323.755 261.5,325.5C 259.033,325.245 257.033,324.245 255.5,322.5 Z"/></g>
<g><path style="opacity:1" fill="#eea226" d="M 437.5,321.5 C 443.206,321.171 448.872,321.505 454.5,322.5C 454.137,323.183 453.804,323.85 453.5,324.5C 447.435,327.611 441.102,330.278 434.5,332.5C 434.369,331.624 434.702,330.957 435.5,330.5C 437.225,329.985 438.892,329.318 440.5,328.5C 439.624,327.749 438.624,327.249 437.5,327C 441.619,326.857 445.619,326.19 449.5,325C 444.271,324.881 439.105,324.714 434,324.5C 430.286,325.869 426.453,326.536 422.5,326.5C 423.93,325.463 425.597,324.796 427.5,324.5C 430.01,324.073 432.343,323.407 434.5,322.5C 435.609,322.443 436.609,322.11 437.5,321.5 Z"/></g>
<g><path style="opacity:1" fill="#9ac48e" d="M 358.5,319.5 C 357.37,321.315 356.704,323.315 356.5,325.5C 358.5,325.5 360.5,325.5 362.5,325.5C 360.052,326.473 357.385,326.806 354.5,326.5C 354.216,323.143 355.549,320.809 358.5,319.5 Z"/></g>
<g><path style="opacity:1" fill="#efa227" d="M 184.5,321.5 C 187.845,323.217 191.511,323.884 195.5,323.5C 199.775,324.319 203.775,325.653 207.5,327.5C 207.5,327.833 207.5,328.167 207.5,328.5C 201.811,329.67 196.144,329.67 190.5,328.5C 189.692,328.808 189.025,329.308 188.5,330C 189.737,330.232 190.737,330.732 191.5,331.5C 190.167,331.5 188.833,331.5 187.5,331.5C 185.967,329.755 183.967,328.755 181.5,328.5C 178.95,327.943 176.95,326.61 175.5,324.5C 173.708,324.634 172.042,324.301 170.5,323.5C 174.715,321.564 179.381,320.897 184.5,321.5 Z"/></g>
<g><path style="opacity:1" fill="#fb9a07" d="M 175.5,324.5 C 176.334,323.252 177.667,322.585 179.5,322.5C 185.413,323.94 191.413,324.773 197.5,325C 198.167,325.667 198.833,326.333 199.5,327C 194.678,326.224 189.845,326.39 185,327.5C 182.076,325.791 178.909,324.791 175.5,324.5 Z"/></g>
<g><path style="opacity:1" fill="#f6d8a9" d="M 207.5,328.5 C 207.5,328.167 207.5,327.833 207.5,327.5C 210.313,327.025 212.313,328.025 213.5,330.5C 211.685,329.37 209.685,328.704 207.5,328.5 Z"/></g>
<g><path style="opacity:1" fill="#f79c13" d="M 207.5,328.5 C 209.685,328.704 211.685,329.37 213.5,330.5C 215.153,330.66 216.486,331.326 217.5,332.5C 218.091,333.151 218.757,333.818 219.5,334.5C 215.555,335.491 211.555,335.824 207.5,335.5C 206.167,335.5 204.833,335.5 203.5,335.5C 203.918,334.778 204.584,334.278 205.5,334C 200.816,333.565 196.149,333.065 191.5,332.5C 191.5,332.167 191.5,331.833 191.5,331.5C 190.737,330.732 189.737,330.232 188.5,330C 189.025,329.308 189.692,328.808 190.5,328.5C 196.144,329.67 201.811,329.67 207.5,328.5 Z"/></g>
<g><path style="opacity:1" fill="#a8cc99" d="M 255.5,329.5 C 251.818,329.335 248.152,329.501 244.5,330C 243.243,332.076 243.576,333.91 245.5,335.5C 243.319,334.709 241.653,333.209 240.5,331C 240.645,330.228 240.978,329.561 241.5,329C 246.352,328.185 251.019,328.352 255.5,329.5 Z"/></g>
<g><path style="opacity:1" fill="#f0ce9d" d="M 181.5,328.5 C 183.967,328.755 185.967,329.755 187.5,331.5C 185.033,331.245 183.033,330.245 181.5,328.5 Z"/></g>
<g><path style="opacity:1" fill="#98c78f" d="M 381.5,329.5 C 376.797,329.437 372.13,329.771 367.5,330.5C 369.807,328.953 372.473,328.287 375.5,328.5C 377.696,328.505 379.696,328.838 381.5,329.5 Z"/></g>
<g><path style="opacity:1" fill="#86b571" d="M 167.5,331.5 C 157.486,330.726 147.819,332.059 138.5,335.5C 140.818,333.007 143.818,331.507 147.5,331C 154.346,330.179 161.013,330.346 167.5,331.5 Z"/></g>
<g><path style="opacity:1" fill="#64b648" d="M 255.5,329.5 C 256.167,329.5 256.833,329.5 257.5,329.5C 257.833,330.5 258.5,331.167 259.5,331.5C 259.916,333.752 261.249,335.252 263.5,336C 258.095,338.049 252.762,337.883 247.5,335.5C 246.833,335.5 246.167,335.5 245.5,335.5C 243.576,333.91 243.243,332.076 244.5,330C 248.152,329.501 251.818,329.335 255.5,329.5 Z"/></g>
<g><path style="opacity:1" fill="#c1e3b9" d="M 487.5,331.5 C 477.448,331.216 467.448,331.55 457.5,332.5C 457.611,331.883 457.944,331.383 458.5,331C 468.342,330.175 478.009,330.342 487.5,331.5 Z"/></g>
<g><path style="opacity:1" fill="#f79c0e" d="M 434.5,332.5 C 430.018,332.034 426.018,333.034 422.5,335.5C 421.833,335.5 421.167,335.5 420.5,335.5C 416.833,335.5 413.167,335.5 409.5,335.5C 411.806,333.861 413.806,331.861 415.5,329.5C 417.282,327.643 419.615,326.643 422.5,326.5C 426.453,326.536 430.286,325.869 434,324.5C 439.105,324.714 444.271,324.881 449.5,325C 445.619,326.19 441.619,326.857 437.5,327C 438.624,327.249 439.624,327.749 440.5,328.5C 438.892,329.318 437.225,329.985 435.5,330.5C 434.702,330.957 434.369,331.624 434.5,332.5 Z"/></g>
<g><path style="opacity:1" fill="#eab75e" d="M 191.5,332.5 C 196.149,333.065 200.816,333.565 205.5,334C 204.584,334.278 203.918,334.778 203.5,335.5C 199.159,335.342 195.159,334.342 191.5,332.5 Z"/></g>
<g><path style="opacity:1" fill="#61bb41" d="M 364.5,335.5 C 364.263,334.209 364.596,333.209 365.5,332.5C 369.157,331.838 372.824,331.171 376.5,330.5C 377.833,330.833 379.167,331.167 380.5,331.5C 378.78,332.934 376.78,333.767 374.5,334C 374.167,335 373.833,336 373.5,337C 370.833,337.667 368.167,337.667 365.5,337C 364.944,336.617 364.611,336.117 364.5,335.5 Z"/></g>
<g><path style="opacity:1" fill="#e3a337" d="M 413.5,329.5 C 414.167,329.5 414.833,329.5 415.5,329.5C 413.806,331.861 411.806,333.861 409.5,335.5C 408.325,335.719 407.325,335.386 406.5,334.5C 408.809,332.647 411.142,330.98 413.5,329.5 Z"/></g>
<g><path style="opacity:1" fill="#ebbb6f" d="M 434.5,332.5 C 430.8,334.245 426.8,335.245 422.5,335.5C 426.018,333.034 430.018,332.034 434.5,332.5 Z"/></g>
<g><path style="opacity:1" fill="#d4eeca" d="M 257.5,329.5 C 262.453,329.813 265.787,332.313 267.5,337C 267.164,338.03 266.497,338.53 265.5,338.5C 264.971,334.967 262.971,332.633 259.5,331.5C 258.5,331.167 257.833,330.5 257.5,329.5 Z"/></g>
<g><path style="opacity:1" fill="#ecd7a8" d="M 217.5,332.5 C 218.833,332.5 220.167,332.5 221.5,332.5C 221.5,333.833 221.5,335.167 221.5,336.5C 216.637,336.819 211.97,336.486 207.5,335.5C 211.555,335.824 215.555,335.491 219.5,334.5C 218.757,333.818 218.091,333.151 217.5,332.5 Z"/></g>
<g><path style="opacity:1" fill="#f6ebca" d="M 413.5,329.5 C 411.142,330.98 408.809,332.647 406.5,334.5C 407.325,335.386 408.325,335.719 409.5,335.5C 413.167,335.5 416.833,335.5 420.5,335.5C 418.777,336.8 416.61,337.467 414,337.5C 410.8,337.344 407.633,337.011 404.5,336.5C 404.33,335.178 404.663,334.011 405.5,333C 407.867,331.155 410.533,329.989 413.5,329.5 Z"/></g>
<g><path style="opacity:1" fill="#7ab25d" d="M 175.5,333.5 C 178.956,333.753 180.789,335.42 181,338.5C 179.311,340.76 178.144,343.26 177.5,346C 175.316,346.121 173.316,345.621 171.5,344.5C 175.819,345.146 177.819,343.313 177.5,339C 177.079,337.011 176.412,335.177 175.5,333.5 Z"/></g>
<g><path style="opacity:1" fill="#7cb068" d="M 259.5,331.5 C 262.971,332.633 264.971,334.967 265.5,338.5C 260.886,339.55 256.22,339.717 251.5,339C 249.676,338.34 248.343,337.173 247.5,335.5C 252.762,337.883 258.095,338.049 263.5,336C 261.249,335.252 259.916,333.752 259.5,331.5 Z"/></g>
<g><path style="opacity:1" fill="#6caf54" d="M 381.5,329.5 C 382.649,329.791 383.316,330.624 383.5,332C 383.333,332.833 383.167,333.667 383,334.5C 381.698,335.085 380.531,335.751 379.5,336.5C 374.348,338.43 369.014,338.93 363.5,338C 362.117,336.539 362.451,335.706 364.5,335.5C 364.611,336.117 364.944,336.617 365.5,337C 368.167,337.667 370.833,337.667 373.5,337C 373.833,336 374.167,335 374.5,334C 376.78,333.767 378.78,332.934 380.5,331.5C 379.167,331.167 377.833,330.833 376.5,330.5C 372.824,331.171 369.157,331.838 365.5,332.5C 366.167,331.833 366.833,331.167 367.5,330.5C 372.13,329.771 376.797,329.437 381.5,329.5 Z"/></g>
<g><path style="opacity:1" fill="#a0c594" d="M 367.5,330.5 C 366.833,331.167 366.167,331.833 365.5,332.5C 364.596,333.209 364.263,334.209 364.5,335.5C 362.451,335.706 362.117,336.539 363.5,338C 369.014,338.93 374.348,338.43 379.5,336.5C 379.047,337.458 378.381,338.292 377.5,339C 371.833,339.667 366.167,339.667 360.5,339C 359.269,337.817 359.269,336.651 360.5,335.5C 362.361,334.472 363.695,332.972 364.5,331C 365.448,330.517 366.448,330.351 367.5,330.5 Z"/></g>
<g><path style="opacity:1" fill="#61ba43" d="M 465.5,365.5 C 465.279,366.735 464.612,367.735 463.5,368.5C 468.792,369.495 474.125,369.828 479.5,369.5C 479.5,370.5 479.5,371.5 479.5,372.5C 474.167,372.5 468.833,372.5 463.5,372.5C 463.48,374.143 464.147,375.476 465.5,376.5C 464.456,377.623 463.79,378.956 463.5,380.5C 464.465,384.809 464.631,389.143 464,393.5C 463.71,391.956 463.044,390.623 462,389.5C 461.815,376.455 461.315,363.455 460.5,350.5C 462.235,347.161 461.568,344.494 458.5,342.5C 457.106,345.651 457.273,348.651 459,351.5C 459.667,362.167 459.667,372.833 459,383.5C 454.855,386.892 455.021,390.392 459.5,394C 457.75,395.319 455.75,395.819 453.5,395.5C 452.172,376.996 452.172,358.329 453.5,339.5C 454.086,339.709 454.586,340.043 455,340.5C 455.495,338.527 455.662,336.527 455.5,334.5C 456.93,334.579 458.264,334.246 459.5,333.5C 459.809,337.369 461.809,339.369 465.5,339.5C 465.753,341.827 465.086,343.827 463.5,345.5C 463.88,352.134 464.547,358.801 465.5,365.5 Z"/></g>
<g><path style="opacity:1" fill="#71b35a" d="M 487.5,331.5 C 490.632,332.249 493.299,333.582 495.5,335.5C 484.962,333.726 474.295,333.06 463.5,333.5C 463.343,334.873 463.51,336.207 464,337.5C 465.699,336.594 467.533,336.261 469.5,336.5C 469.5,338.167 469.5,339.833 469.5,341.5C 477.265,341.353 484.931,342.02 492.5,343.5C 492.799,345.973 493.799,348.14 495.5,350C 495.044,353.108 494.878,356.275 495,359.5C 493.505,364.162 490.339,366.828 485.5,367.5C 478.978,367.823 472.645,367.49 466.5,366.5C 472.842,366.666 479.175,366.5 485.5,366C 489.143,364.195 491.476,361.362 492.5,357.5C 493.525,352.233 491.858,348.233 487.5,345.5C 486.737,344.732 485.737,344.232 484.5,344C 478.509,343.501 472.509,343.334 466.5,343.5C 466.5,350.833 466.5,358.167 466.5,365.5C 466.167,365.5 465.833,365.5 465.5,365.5C 464.547,358.801 463.88,352.134 463.5,345.5C 465.086,343.827 465.753,341.827 465.5,339.5C 461.809,339.369 459.809,337.369 459.5,333.5C 458.264,334.246 456.93,334.579 455.5,334.5C 455.662,336.527 455.495,338.527 455,340.5C 454.586,340.043 454.086,339.709 453.5,339.5C 452.172,358.329 452.172,376.996 453.5,395.5C 453.5,395.833 453.5,396.167 453.5,396.5C 451.513,378.197 450.846,359.53 451.5,340.5C 452.019,336.657 454.019,333.99 457.5,332.5C 467.448,331.55 477.448,331.216 487.5,331.5 Z"/></g>
<g><path style="opacity:1" fill="#e8f7de" d="M 500.5,337.5 C 501.922,337.709 503.255,338.209 504.5,339C 505.652,341.149 507.152,342.982 509,344.5C 509.667,349.833 509.667,355.167 509,360.5C 508.768,361.737 508.268,362.737 507.5,363.5C 508.629,357.831 508.629,352.164 507.5,346.5C 505.4,343.289 503.066,340.289 500.5,337.5 Z"/></g>
<g><path style="opacity:1" fill="#fcfdfb" d="M 487.5,345.5 C 491.858,348.233 493.525,352.233 492.5,357.5C 491.153,358.171 489.986,358.171 489,357.5C 488.027,355.608 487.36,353.608 487,351.5C 486.578,353.355 486.078,355.189 485.5,357C 485.988,358.584 486.988,359.751 488.5,360.5C 486.349,362.718 483.682,364.052 480.5,364.5C 477.886,364.549 475.219,364.215 472.5,363.5C 470.944,364.547 469.277,365.214 467.5,365.5C 467.391,358.804 467.724,352.137 468.5,345.5C 474.844,344.312 481.178,344.312 487.5,345.5 Z"/></g>
<g><path style="opacity:1" fill="#9bc793" d="M 340.5,348.5 C 342.948,347.527 345.615,347.194 348.5,347.5C 349.5,348.833 350.5,350.167 351.5,351.5C 349.833,350.833 348.167,350.167 346.5,349.5C 344.735,348.539 342.735,348.205 340.5,348.5 Z"/></g>
<g><path style="opacity:1" fill="#a1c995" d="M 132.5,343.5 C 131.8,347.798 131.467,352.131 131.5,356.5C 130.839,354.866 130.506,353.033 130.5,351C 130.3,348.134 130.967,345.634 132.5,343.5 Z"/></g>
<g><path style="opacity:1" fill="#79ad64" d="M 277.5,351.5 C 276.728,352.694 275.728,353.694 274.5,354.5C 274.966,352.799 274.966,351.299 274.5,350C 271.228,349.212 268.228,349.712 265.5,351.5C 265.953,350.542 266.619,349.708 267.5,349C 270.817,348.502 274.15,348.335 277.5,348.5C 277.5,349.5 277.5,350.5 277.5,351.5 Z"/></g>
<g><path style="opacity:1" fill="#a3ca8e" d="M 220.5,348.5 C 217.813,348.336 215.146,348.503 212.5,349C 211.619,349.708 210.953,350.542 210.5,351.5C 209.5,351.5 208.5,351.5 207.5,351.5C 207.574,349.589 208.574,348.422 210.5,348C 214.027,347.192 217.36,347.359 220.5,348.5 Z"/></g>
<g><path style="opacity:1" fill="#89b77a" d="M 242.5,348.5 C 239.335,347.964 236.669,348.797 234.5,351C 236.93,353.305 237.93,356.138 237.5,359.5C 235.138,355.769 233.138,351.769 231.5,347.5C 235.371,347.185 239.038,347.518 242.5,348.5 Z"/></g>
<g><path style="opacity:1" fill="#b6d6ad" d="M 277.5,351.5 C 277.5,350.5 277.5,349.5 277.5,348.5C 274.15,348.335 270.817,348.502 267.5,349C 266.619,349.708 265.953,350.542 265.5,351.5C 265.167,351.5 264.833,351.5 264.5,351.5C 264.511,349.983 265.177,348.816 266.5,348C 270.486,347.501 274.486,347.334 278.5,347.5C 278.768,349.099 278.434,350.432 277.5,351.5 Z"/></g>
<g><path style="opacity:1" fill="#bcd9b0" d="M 318.5,351.5 C 315.892,351.6 313.558,350.933 311.5,349.5C 302.991,348.179 294.325,348.179 285.5,349.5C 285.137,350.183 284.804,350.85 284.5,351.5C 284.167,351.5 283.833,351.5 283.5,351.5C 283.539,350.417 283.873,349.417 284.5,348.5C 294.483,347.334 304.483,347.168 314.5,348C 316.093,348.949 317.426,350.115 318.5,351.5 Z"/></g>
<g><path style="opacity:1" fill="#6fab56" d="M 311.5,349.5 C 303.493,349.334 295.493,349.5 287.5,350C 286.756,351.039 285.756,351.539 284.5,351.5C 284.804,350.85 285.137,350.183 285.5,349.5C 294.325,348.179 302.991,348.179 311.5,349.5 Z"/></g>
<g><path style="opacity:1" fill="#e4f7e1" d="M 348.5,347.5 C 345.615,347.194 342.948,347.527 340.5,348.5C 339.833,348.5 339.5,348.833 339.5,349.5C 338.504,364.658 338.17,379.991 338.5,395.5C 337.339,380.005 337.172,364.339 338,348.5C 339.648,346.972 341.648,346.305 344,346.5C 345.707,346.508 347.207,346.842 348.5,347.5 Z"/></g>
<g><path style="opacity:1" fill="#6cab50" d="M 373.5,348.5 C 377.042,348.187 380.375,348.521 383.5,349.5C 380.315,349.02 377.481,349.686 375,351.5C 374.667,360.5 374.333,369.5 374,378.5C 369.56,379.434 367.393,377.434 367.5,372.5C 368.167,372.833 368.833,373.167 369.5,373.5C 369.525,376.179 370.858,377.512 373.5,377.5C 373.5,368.167 373.5,358.833 373.5,349.5C 373.5,349.167 373.5,348.833 373.5,348.5 Z"/></g>
<g><path style="opacity:1" fill="#f6fdf1" d="M 384.5,396.5 C 384.5,380.167 384.5,363.833 384.5,347.5C 380.833,347.5 377.167,347.5 373.5,347.5C 377.14,347.07 380.64,346.07 384,344.5C 384.605,346.481 385.605,346.815 387,345.5C 387.333,347.167 387.667,348.833 388,350.5C 388.333,350.167 388.667,349.833 389,349.5C 389.5,360.828 389.667,372.162 389.5,383.5C 390.675,383.281 391.675,383.614 392.5,384.5C 390.297,386.295 389.131,388.629 389,391.5C 387.497,378.196 387.331,364.862 388.5,351.5C 387.5,351.5 386.5,351.5 385.5,351.5C 385.829,366.676 385.496,381.676 384.5,396.5 Z"/></g>
<g><path style="opacity:1" fill="#effee5" d="M 407.5,348.5 C 408.497,348.47 409.164,348.97 409.5,350C 408.537,359.793 408.204,369.626 408.5,379.5C 407.662,379.158 407.328,378.492 407.5,377.5C 407.5,367.833 407.5,358.167 407.5,348.5 Z"/></g>
<g><path style="opacity:1" fill="#effeed" d="M 450.5,341.5 C 450.5,360.167 450.5,378.833 450.5,397.5C 449.5,397.5 448.5,397.5 447.5,397.5C 447.786,395.723 448.453,394.056 449.5,392.5C 449.167,391.167 448.833,389.833 448.5,388.5C 449.137,372.686 449.804,357.02 450.5,341.5 Z"/></g>
<g><path style="opacity:1" fill="#70b257" d="M 138.5,335.5 C 132.66,344.681 132.327,354.015 137.5,363.5C 134.723,361.731 132.723,359.398 131.5,356.5C 131.467,352.131 131.8,347.798 132.5,343.5C 133.37,339.966 135.37,337.299 138.5,335.5 Z"/></g>
<g><path style="opacity:1" fill="#62b946" d="M 311.5,349.5 C 313.558,350.933 315.892,351.6 318.5,351.5C 319.338,351.842 319.672,352.508 319.5,353.5C 321.659,357.693 324.326,361.693 327.5,365.5C 328.362,369.453 328.695,373.453 328.5,377.5C 328.795,379.735 328.461,381.735 327.5,383.5C 326.5,383.5 325.5,383.5 324.5,383.5C 324.649,384.552 324.483,385.552 324,386.5C 322.186,383.247 322.02,379.913 323.5,376.5C 322.963,371.087 320.63,366.753 316.5,363.5C 316.714,361.856 316.38,360.356 315.5,359C 307.298,355.05 298.964,354.55 290.5,357.5C 290.167,362.667 289.833,367.833 289.5,373C 289.377,378.939 289.877,384.772 291,390.5C 294.691,390.257 298.524,390.59 302.5,391.5C 304.427,390.138 306.427,389.138 308.5,388.5C 312.403,387.547 316.07,386.047 319.5,384C 318.07,382.12 318.404,380.62 320.5,379.5C 321.487,382.768 321.82,386.102 321.5,389.5C 317.183,388.492 314.85,390.159 314.5,394.5C 303.588,396.163 292.588,396.83 281.5,396.5C 281.167,382.817 281.501,369.15 282.5,355.5C 284.111,354.68 284.778,353.346 284.5,351.5C 285.756,351.539 286.756,351.039 287.5,350C 295.493,349.5 303.493,349.334 311.5,349.5 Z"/></g>
<g><path style="opacity:1" fill="#a8cd9a" d="M 207.5,351.5 C 207.727,353.933 206.727,355.599 204.5,356.5C 204.592,354.152 205.592,352.486 207.5,351.5 Z"/></g>
<g><path style="opacity:1" fill="#75b258" d="M 439.5,383.5 C 439.704,374.432 439.037,365.432 437.5,356.5C 435.677,357.747 433.677,358.414 431.5,358.5C 431.5,357.5 431.5,356.5 431.5,355.5C 434.5,354.833 437.5,354.167 440.5,353.5C 440.827,363.681 440.494,373.681 439.5,383.5 Z"/></g>
<g><path style="opacity:1" fill="#88bb72" d="M 148.5,344.5 C 146.609,346.836 146.109,349.502 147,352.5C 151.014,354.995 155.181,356.995 159.5,358.5C 148.822,360.32 144.322,355.986 146,345.5C 146.671,344.748 147.504,344.414 148.5,344.5 Z"/></g>
<g><path style="opacity:1" fill="#6cb651" d="M 274.5,354.5 C 270.949,363.269 266.616,371.602 261.5,379.5C 260.566,380.568 260.232,381.901 260.5,383.5C 259.039,378.578 256.539,374.245 253,370.5C 252.725,367.588 251.891,364.921 250.5,362.5C 252.727,363.401 253.727,365.067 253.5,367.5C 254.833,367.5 256.167,367.5 257.5,367.5C 257.34,365.801 257.506,364.134 258,362.5C 260.729,359.024 262.895,355.357 264.5,351.5C 264.833,351.5 265.167,351.5 265.5,351.5C 268.228,349.712 271.228,349.212 274.5,350C 274.966,351.299 274.966,352.799 274.5,354.5 Z"/></g>
<g><path style="opacity:1" fill="#fcfdfb" d="M 311.5,359.5 C 313.167,360.833 314.833,362.167 316.5,363.5C 316.5,364.167 316.5,364.833 316.5,365.5C 317.833,370.167 317.833,374.833 316.5,379.5C 315.896,382.433 314.229,384.433 311.5,385.5C 309.213,385.724 307.047,386.391 305,387.5C 300.889,386.596 296.722,386.263 292.5,386.5C 292.334,377.494 292.5,368.494 293,359.5C 299.115,358.326 305.282,358.326 311.5,359.5 Z"/></g>
<g><path style="opacity:1" fill="#99c585" d="M 407.5,348.5 C 407.5,358.167 407.5,367.833 407.5,377.5C 407.167,377.5 406.833,377.5 406.5,377.5C 406.5,368.167 406.5,358.833 406.5,349.5C 404.097,349.448 401.764,349.781 399.5,350.5C 399.611,349.883 399.944,349.383 400.5,349C 402.81,348.503 405.143,348.337 407.5,348.5 Z"/></g>
<g><path style="opacity:1" fill="#62b944" d="M 495.5,335.5 C 496.167,335.5 496.833,335.5 497.5,335.5C 501.05,339.575 503.883,344.242 506,349.5C 506.167,351.333 506.333,353.167 506.5,355C 504.273,359.787 502.939,364.954 502.5,370.5C 500.194,370.993 497.861,371.326 495.5,371.5C 495.5,370.167 495.5,368.833 495.5,367.5C 494.5,367.5 493.5,367.5 492.5,367.5C 492.549,370.099 493.549,372.266 495.5,374C 490.306,374.576 486.972,372.409 485.5,367.5C 490.339,366.828 493.505,364.162 495,359.5C 494.878,356.275 495.044,353.108 495.5,350C 493.799,348.14 492.799,345.973 492.5,343.5C 484.931,342.02 477.265,341.353 469.5,341.5C 469.5,339.833 469.5,338.167 469.5,336.5C 467.533,336.261 465.699,336.594 464,337.5C 463.51,336.207 463.343,334.873 463.5,333.5C 474.295,333.06 484.962,333.726 495.5,335.5 Z"/></g>
<g><path style="opacity:1" fill="#75b25f" d="M 497.5,335.5 C 498.5,336.167 499.5,336.833 500.5,337.5C 503.066,340.289 505.4,343.289 507.5,346.5C 508.629,352.164 508.629,357.831 507.5,363.5C 506.015,365.934 504.348,368.267 502.5,370.5C 502.939,364.954 504.273,359.787 506.5,355C 506.333,353.167 506.167,351.333 506,349.5C 503.883,344.242 501.05,339.575 497.5,335.5 Z"/></g>
<g><path style="opacity:1" fill="#7ab566" d="M 159.5,358.5 C 166.591,359.082 172.924,361.416 178.5,365.5C 176.194,365.007 173.861,364.674 171.5,364.5C 171.047,363.542 170.381,362.708 169.5,362C 166.183,361.502 162.85,361.335 159.5,361.5C 159.5,360.5 159.5,359.5 159.5,358.5 Z"/></g>
<g><path style="opacity:1" fill="#f1fcef" d="M 487.5,345.5 C 481.178,344.312 474.844,344.312 468.5,345.5C 467.724,352.137 467.391,358.804 467.5,365.5C 469.277,365.214 470.944,364.547 472.5,363.5C 475.219,364.215 477.886,364.549 480.5,364.5C 483.682,364.052 486.349,362.718 488.5,360.5C 486.988,359.751 485.988,358.584 485.5,357C 486.078,355.189 486.578,353.355 487,351.5C 487.36,353.608 488.027,355.608 489,357.5C 489.986,358.171 491.153,358.171 492.5,357.5C 491.476,361.362 489.143,364.195 485.5,366C 479.175,366.5 472.842,366.666 466.5,366.5C 466.5,366.167 466.5,365.833 466.5,365.5C 466.5,358.167 466.5,350.833 466.5,343.5C 472.509,343.334 478.509,343.501 484.5,344C 485.737,344.232 486.737,344.732 487.5,345.5 Z"/></g>
<g><path style="opacity:1" fill="#62b944" d="M 167.5,331.5 C 170.428,331.565 173.095,332.232 175.5,333.5C 176.412,335.177 177.079,337.011 177.5,339C 177.819,343.313 175.819,345.146 171.5,344.5C 170.571,343.685 169.571,342.852 168.5,342C 162.962,341.764 157.462,341.264 152,340.5C 149.926,341.072 148.76,342.405 148.5,344.5C 147.504,344.414 146.671,344.748 146,345.5C 144.322,355.986 148.822,360.32 159.5,358.5C 159.5,359.5 159.5,360.5 159.5,361.5C 162.85,361.335 166.183,361.502 169.5,362C 170.381,362.708 171.047,363.542 171.5,364.5C 172.622,365.947 174.122,366.947 176,367.5C 176.567,372.834 177.067,378.167 177.5,383.5C 178.675,383.281 179.675,383.614 180.5,384.5C 178.955,385.452 177.288,385.785 175.5,385.5C 175.813,382.753 175.48,380.086 174.5,377.5C 173.012,379.149 172.012,381.149 171.5,383.5C 170.682,380.893 170.182,378.226 170,375.5C 169.329,374.748 168.496,374.414 167.5,374.5C 166.833,374.5 166.167,374.5 165.5,374.5C 163.5,373.5 161.5,372.5 159.5,371.5C 155.74,370.221 152.074,368.387 148.5,366C 146.866,365.506 145.199,365.34 143.5,365.5C 143.649,364.448 143.483,363.448 143,362.5C 141.301,363.406 139.467,363.739 137.5,363.5C 132.327,354.015 132.66,344.681 138.5,335.5C 147.819,332.059 157.486,330.726 167.5,331.5 Z"/></g>
<g><path style="opacity:1" fill="#7cb269" d="M 171.5,344.5 C 167.316,343.126 162.982,342.46 158.5,342.5C 154.935,342.319 151.602,342.985 148.5,344.5C 148.76,342.405 149.926,341.072 152,340.5C 157.462,341.264 162.962,341.764 168.5,342C 169.571,342.852 170.571,343.685 171.5,344.5 Z"/></g>
<g><path style="opacity:1" fill="#f4faf1" d="M 237.5,359.5 C 240.069,363.635 242.403,367.968 244.5,372.5C 244.812,375.273 245.978,377.607 248,379.5C 248.499,385.491 248.666,391.491 248.5,397.5C 246.856,397.714 245.356,397.38 244,396.5C 243.221,397.728 242.221,398.728 241,399.5C 237.346,398.938 233.846,398.271 230.5,397.5C 234.167,397.5 237.833,397.5 241.5,397.5C 241.771,395.62 241.104,394.287 239.5,393.5C 239.66,391.801 239.494,390.134 239,388.5C 236.313,382.448 233.146,376.781 229.5,371.5C 229.416,368.673 228.75,366.006 227.5,363.5C 229.532,364.048 230.532,365.381 230.5,367.5C 231.833,367.5 233.167,367.5 234.5,367.5C 234.351,366.448 234.517,365.448 235,364.5C 235.667,363.167 236.333,363.167 237,364.5C 237.494,362.866 237.66,361.199 237.5,359.5 Z"/></g>
<g><path style="opacity:1" fill="#98c88b" d="M 399.5,351.5 C 399.66,353.199 399.494,354.866 399,356.5C 398.641,353.456 397.974,353.122 397,355.5C 396.5,364.827 396.334,374.161 396.5,383.5C 395.342,373.675 395.175,363.675 396,353.5C 396.71,352.027 397.876,351.36 399.5,351.5 Z"/></g>
<g><path style="opacity:1" fill="#77b461" d="M 207.5,351.5 C 208.5,351.5 209.5,351.5 210.5,351.5C 207.485,357.15 204.151,362.484 200.5,367.5C 201.382,363.62 202.715,359.953 204.5,356.5C 206.727,355.599 207.727,353.933 207.5,351.5 Z"/></g>
<g><path style="opacity:1" fill="#69b64e" d="M 220.5,348.5 C 222.561,353.623 224.895,358.623 227.5,363.5C 228.75,366.006 229.416,368.673 229.5,371.5C 227.223,370.551 225.223,369.218 223.5,367.5C 222.833,367.667 222.167,367.833 221.5,368C 222.626,371.744 222.793,375.577 222,379.5C 219.619,380.435 217.119,380.768 214.5,380.5C 214.5,381.5 214.5,382.5 214.5,383.5C 213.167,383.5 211.833,383.5 210.5,383.5C 210.5,382.5 210.5,381.5 210.5,380.5C 208.833,380.5 207.167,380.5 205.5,380.5C 205.5,381.5 205.5,382.5 205.5,383.5C 204.167,383.5 202.833,383.5 201.5,383.5C 200.551,380.792 200.551,378.126 201.5,375.5C 202.726,376.363 204.06,376.363 205.5,375.5C 205.285,377.179 205.952,378.179 207.5,378.5C 212.167,378.5 216.833,378.5 221.5,378.5C 221.662,376.473 221.495,374.473 221,372.5C 220.617,371.944 220.117,371.611 219.5,371.5C 218.062,368.284 216.895,364.951 216,361.5C 214.855,360.316 213.688,360.316 212.5,361.5C 212.34,359.801 212.506,358.134 213,356.5C 214.732,354.717 216.232,352.717 217.5,350.5C 216.833,350.167 216.167,349.833 215.5,349.5C 213.823,350.187 212.156,350.854 210.5,351.5C 210.953,350.542 211.619,349.708 212.5,349C 215.146,348.503 217.813,348.336 220.5,348.5 Z"/></g>
<g><path style="opacity:1" fill="#f2f9f0" d="M 219.5,371.5 C 220.15,373.435 220.483,375.435 220.5,377.5C 216.167,377.5 211.833,377.5 207.5,377.5C 208.639,372.347 210.306,367.347 212.5,362.5C 212.5,362.167 212.5,361.833 212.5,361.5C 213.688,360.316 214.855,360.316 216,361.5C 216.895,364.951 218.062,368.284 219.5,371.5 Z"/></g>
<g><path style="opacity:1" fill="#6fb15a" d="M 316.5,363.5 C 314.833,362.167 313.167,360.833 311.5,359.5C 308.135,357.961 304.469,357.294 300.5,357.5C 297.579,357.524 294.746,357.857 292,358.5C 291.5,368.494 291.334,378.494 291.5,388.5C 297.167,388.5 302.833,388.5 308.5,388.5C 306.427,389.138 304.427,390.138 302.5,391.5C 298.524,390.59 294.691,390.257 291,390.5C 289.877,384.772 289.377,378.939 289.5,373C 289.833,367.833 290.167,362.667 290.5,357.5C 298.964,354.55 307.298,355.05 315.5,359C 316.38,360.356 316.714,361.856 316.5,363.5 Z"/></g>
<g><path style="opacity:1" fill="#62b748" d="M 406.5,377.5 C 406.664,380.187 406.497,382.854 406,385.5C 403.749,386.412 401.583,387.412 399.5,388.5C 398.313,386.928 397.313,385.261 396.5,383.5C 396.334,374.161 396.5,364.827 397,355.5C 397.974,353.122 398.641,353.456 399,356.5C 399.494,354.866 399.66,353.199 399.5,351.5C 399.5,351.167 399.5,350.833 399.5,350.5C 401.764,349.781 404.097,349.448 406.5,349.5C 406.5,358.833 406.5,368.167 406.5,377.5 Z"/></g>
<g><path style="opacity:1" fill="#79b165" d="M 159.5,371.5 C 153.387,370.519 147.387,369.019 141.5,367C 139.676,366.34 138.343,365.173 137.5,363.5C 139.467,363.739 141.301,363.406 143,362.5C 143.483,363.448 143.649,364.448 143.5,365.5C 145.199,365.34 146.866,365.506 148.5,366C 152.074,368.387 155.74,370.221 159.5,371.5 Z"/></g>
<g><path style="opacity:1" fill="#71b060" d="M 212.5,362.5 C 210.306,367.347 208.639,372.347 207.5,377.5C 207.5,377.833 207.5,378.167 207.5,378.5C 205.952,378.179 205.285,377.179 205.5,375.5C 207.177,371.625 208.677,367.625 210,363.5C 210.671,362.748 211.504,362.414 212.5,362.5 Z"/></g>
<g><path style="opacity:1" fill="#5fba43" d="M 264.5,357.5 C 265.777,358.694 266.444,360.36 266.5,362.5C 266.528,367.921 264.694,372.587 261,376.5C 260.963,372.911 260.13,369.578 258.5,366.5C 260.503,363.467 262.503,360.467 264.5,357.5 Z"/></g>
<g><path style="opacity:1" fill="#6fb455" d="M 316.5,363.5 C 320.63,366.753 322.963,371.087 323.5,376.5C 322.02,379.913 322.186,383.247 324,386.5C 324.483,385.552 324.649,384.552 324.5,383.5C 325.5,383.5 326.5,383.5 327.5,383.5C 326.904,385.745 325.904,387.745 324.5,389.5C 321.833,391.167 319.167,392.833 316.5,394.5C 315.833,394.5 315.167,394.5 314.5,394.5C 314.85,390.159 317.183,388.492 321.5,389.5C 321.82,386.102 321.487,382.768 320.5,379.5C 318.404,380.62 318.07,382.12 319.5,384C 316.07,386.047 312.403,387.547 308.5,388.5C 309.306,387.272 310.306,386.272 311.5,385.5C 314.229,384.433 315.896,382.433 316.5,379.5C 317.117,379.389 317.617,379.056 318,378.5C 318.667,374.5 318.667,370.5 318,366.5C 317.617,365.944 317.117,365.611 316.5,365.5C 316.5,364.833 316.5,364.167 316.5,363.5 Z"/></g>
<g><path style="opacity:1" fill="#74ac5b" d="M 319.5,353.5 C 322.473,355.147 325.14,357.147 327.5,359.5C 329.645,365.504 329.978,371.504 328.5,377.5C 328.695,373.453 328.362,369.453 327.5,365.5C 324.326,361.693 321.659,357.693 319.5,353.5 Z"/></g>
<g><path style="opacity:1" fill="#e4f4dd" d="M 327.5,359.5 C 328.606,360.149 329.606,360.483 330.5,360.5C 329.814,362.064 329.981,363.731 331,365.5C 332.192,373.558 331.025,381.225 327.5,388.5C 326.675,389.386 325.675,389.719 324.5,389.5C 325.904,387.745 326.904,385.745 327.5,383.5C 328.461,381.735 328.795,379.735 328.5,377.5C 329.978,371.504 329.645,365.504 327.5,359.5 Z"/></g>
<g><path style="opacity:1" fill="#67b64e" d="M 465.5,365.5 C 465.833,365.5 466.167,365.5 466.5,365.5C 466.5,365.833 466.5,366.167 466.5,366.5C 472.645,367.49 478.978,367.823 485.5,367.5C 486.972,372.409 490.306,374.576 495.5,374C 493.549,372.266 492.549,370.099 492.5,367.5C 493.5,367.5 494.5,367.5 495.5,367.5C 495.5,368.833 495.5,370.167 495.5,371.5C 497.861,371.326 500.194,370.993 502.5,370.5C 500.519,372.303 498.352,373.97 496,375.5C 495.517,376.448 495.351,377.448 495.5,378.5C 495.5,379.167 495.5,379.833 495.5,380.5C 494.25,380.577 493.417,381.244 493,382.5C 491.667,381.833 490.333,381.167 489,380.5C 488.223,375.036 485.057,373.036 479.5,374.5C 479.736,376.973 481.069,378.64 483.5,379.5C 484.246,380.736 484.579,382.07 484.5,383.5C 483.636,382.312 482.636,381.145 481.5,380C 476.511,379.501 471.511,379.334 466.5,379.5C 465.79,384.702 465.124,390.035 464.5,395.5C 460.893,396.489 457.226,396.823 453.5,396.5C 453.5,396.167 453.5,395.833 453.5,395.5C 455.75,395.819 457.75,395.319 459.5,394C 455.021,390.392 454.855,386.892 459,383.5C 459.667,372.833 459.667,362.167 459,351.5C 457.273,348.651 457.106,345.651 458.5,342.5C 461.568,344.494 462.235,347.161 460.5,350.5C 461.315,363.455 461.815,376.455 462,389.5C 463.044,390.623 463.71,391.956 464,393.5C 464.631,389.143 464.465,384.809 463.5,380.5C 463.79,378.956 464.456,377.623 465.5,376.5C 464.147,375.476 463.48,374.143 463.5,372.5C 468.833,372.5 474.167,372.5 479.5,372.5C 479.5,371.5 479.5,370.5 479.5,369.5C 474.125,369.828 468.792,369.495 463.5,368.5C 464.612,367.735 465.279,366.735 465.5,365.5 Z"/></g>
<g><path style="opacity:1" fill="#bce3b0" d="M 316.5,365.5 C 317.117,365.611 317.617,365.944 318,366.5C 318.667,370.5 318.667,374.5 318,378.5C 317.617,379.056 317.117,379.389 316.5,379.5C 317.833,374.833 317.833,370.167 316.5,365.5 Z"/></g>
<g><path style="opacity:1" fill="#62b847" d="M 439.5,383.5 C 437.725,388.953 434.391,393.286 429.5,396.5C 424.87,397.229 420.203,397.563 415.5,397.5C 411.342,396.684 407.342,395.351 403.5,393.5C 403.5,392.167 403.5,390.833 403.5,389.5C 406.421,389.146 408.754,390.146 410.5,392.5C 411.548,391.617 412.715,390.95 414,390.5C 416.12,391.459 418.287,391.626 420.5,391C 424.863,389.491 428.863,387.325 432.5,384.5C 432.376,383.893 432.043,383.56 431.5,383.5C 430.28,375.315 430.28,366.982 431.5,358.5C 433.677,358.414 435.677,357.747 437.5,356.5C 439.037,365.432 439.704,374.432 439.5,383.5 Z"/></g>
<g><path style="opacity:1" fill="#ddf2d2" d="M 311.5,359.5 C 305.282,358.326 299.115,358.326 293,359.5C 292.5,368.494 292.334,377.494 292.5,386.5C 296.722,386.263 300.889,386.596 305,387.5C 307.047,386.391 309.213,385.724 311.5,385.5C 310.306,386.272 309.306,387.272 308.5,388.5C 302.833,388.5 297.167,388.5 291.5,388.5C 291.334,378.494 291.5,368.494 292,358.5C 294.746,357.857 297.579,357.524 300.5,357.5C 304.469,357.294 308.135,357.961 311.5,359.5 Z"/></g>
<g><path style="opacity:1" fill="#9bc48b" d="M 339.5,349.5 C 339.5,365.167 339.5,380.833 339.5,396.5C 342.833,396.5 346.167,396.5 349.5,396.5C 349.5,387.833 349.5,379.167 349.5,370.5C 349.263,369.209 349.596,368.209 350.5,367.5C 350.5,377.5 350.5,387.5 350.5,397.5C 346.029,398.089 342.029,397.423 338.5,395.5C 338.17,379.991 338.504,364.658 339.5,349.5 Z"/></g>
<g><path style="opacity:1" fill="#65aa49" d="M 340.5,348.5 C 342.735,348.205 344.735,348.539 346.5,349.5C 344.5,349.5 342.5,349.5 340.5,349.5C 340.5,364.833 340.5,380.167 340.5,395.5C 343.167,395.5 345.833,395.5 348.5,395.5C 348.174,386.983 348.507,378.65 349.5,370.5C 349.5,379.167 349.5,387.833 349.5,396.5C 346.167,396.5 342.833,396.5 339.5,396.5C 339.5,380.833 339.5,365.167 339.5,349.5C 339.5,348.833 339.833,348.5 340.5,348.5 Z"/></g>
<g><path style="opacity:1" fill="#63b847" d="M 242.5,348.5 C 246.204,352.575 248.871,357.242 250.5,362.5C 251.891,364.921 252.725,367.588 253,370.5C 256.539,374.245 259.039,378.578 260.5,383.5C 260.608,387.247 260.108,390.914 259,394.5C 256.049,396.076 252.883,396.743 249.5,396.5C 249.666,390.491 249.499,384.491 249,378.5C 247.406,376.474 245.906,374.474 244.5,372.5C 242.403,367.968 240.069,363.635 237.5,359.5C 237.93,356.138 236.93,353.305 234.5,351C 236.669,348.797 239.335,347.964 242.5,348.5 Z"/></g>
<g><path style="opacity:1" fill="#a5c99a" d="M 182.5,367.5 C 184.006,370.356 184.672,373.523 184.5,377C 184.496,379.361 184.163,381.527 183.5,383.5C 183.608,378.13 183.275,372.797 182.5,367.5 Z"/></g>
<g><path style="opacity:1" fill="#63b947" d="M 212.5,361.5 C 212.5,361.833 212.5,362.167 212.5,362.5C 211.504,362.414 210.671,362.748 210,363.5C 208.677,367.625 207.177,371.625 205.5,375.5C 204.06,376.363 202.726,376.363 201.5,375.5C 200.551,378.126 200.551,380.792 201.5,383.5C 202.833,383.5 204.167,383.5 205.5,383.5C 205.5,382.5 205.5,381.5 205.5,380.5C 207.167,380.5 208.833,380.5 210.5,380.5C 210.5,381.5 210.5,382.5 210.5,383.5C 211.833,383.5 213.167,383.5 214.5,383.5C 214.5,382.5 214.5,381.5 214.5,380.5C 217.119,380.768 219.619,380.435 222,379.5C 222.793,375.577 222.626,371.744 221.5,368C 222.167,367.833 222.833,367.667 223.5,367.5C 225.223,369.218 227.223,370.551 229.5,371.5C 233.146,376.781 236.313,382.448 239,388.5C 239.494,390.134 239.66,391.801 239.5,393.5C 239.5,394.5 239.5,395.5 239.5,396.5C 236.167,396.5 232.833,396.5 229.5,396.5C 228.607,393.18 227.273,390.18 225.5,387.5C 225.5,387.167 225.5,386.833 225.5,386.5C 217.324,385.179 208.991,385.179 200.5,386.5C 199.288,388.923 197.288,389.923 194.5,389.5C 195.075,385.477 195.741,381.477 196.5,377.5C 197.263,373.863 198.597,370.53 200.5,367.5C 204.151,362.484 207.485,357.15 210.5,351.5C 212.156,350.854 213.823,350.187 215.5,349.5C 216.167,349.833 216.833,350.167 217.5,350.5C 216.232,352.717 214.732,354.717 213,356.5C 212.506,358.134 212.34,359.801 212.5,361.5 Z"/></g>
<g><path style="opacity:1" fill="#b4d6aa" d="M 219.5,371.5 C 220.117,371.611 220.617,371.944 221,372.5C 221.495,374.473 221.662,376.473 221.5,378.5C 216.833,378.5 212.167,378.5 207.5,378.5C 207.5,378.167 207.5,377.833 207.5,377.5C 211.833,377.5 216.167,377.5 220.5,377.5C 220.483,375.435 220.15,373.435 219.5,371.5 Z"/></g>
<g><path style="opacity:1" fill="#e7f6e3" d="M 165.5,374.5 C 166.167,374.5 166.833,374.5 167.5,374.5C 170.507,378.637 169.84,382.137 165.5,385C 159.505,386.739 153.505,386.906 147.5,385.5C 147.5,385.167 147.5,384.833 147.5,384.5C 152.5,384.5 157.5,384.5 162.5,384.5C 162.617,382.516 161.95,380.85 160.5,379.5C 161,379.167 161.5,378.833 162,378.5C 163.765,379.232 164.932,380.565 165.5,382.5C 166.946,381.829 167.612,380.662 167.5,379C 166.926,377.393 166.26,375.893 165.5,374.5 Z"/></g>
<g><path style="opacity:1" fill="#7cb167" d="M 431.5,358.5 C 430.28,366.982 430.28,375.315 431.5,383.5C 429.076,385.241 426.41,386.575 423.5,387.5C 425.744,385.878 427.411,383.711 428.5,381C 429.234,374.524 429.734,368.024 430,361.5C 430.232,360.263 430.732,359.263 431.5,358.5 Z"/></g>
<g><path style="opacity:1" fill="#63b846" d="M 495.5,380.5 C 497.826,381.69 498.993,383.69 499,386.5C 500.011,387.337 501.178,387.67 502.5,387.5C 503.909,389.972 505.576,392.305 507.5,394.5C 505.952,395.794 503.952,396.461 501.5,396.5C 498.232,396.655 495.232,395.989 492.5,394.5C 491.031,389.87 488.365,386.204 484.5,383.5C 484.579,382.07 484.246,380.736 483.5,379.5C 481.069,378.64 479.736,376.973 479.5,374.5C 485.057,373.036 488.223,375.036 489,380.5C 490.333,381.167 491.667,381.833 493,382.5C 493.417,381.244 494.25,380.577 495.5,380.5 Z"/></g>
<g><path style="opacity:1" fill="#88ba74" d="M 244.5,372.5 C 245.906,374.474 247.406,376.474 249,378.5C 249.499,384.491 249.666,390.491 249.5,396.5C 252.883,396.743 256.049,396.076 259,394.5C 260.108,390.914 260.608,387.247 260.5,383.5C 260.232,381.901 260.566,380.568 261.5,379.5C 261.897,384.959 261.397,390.292 260,395.5C 256.417,397.29 252.584,397.957 248.5,397.5C 248.666,391.491 248.499,385.491 248,379.5C 245.978,377.607 244.812,375.273 244.5,372.5 Z"/></g>
<g><path style="opacity:1" fill="#73ad61" d="M 484.5,383.5 C 488.365,386.204 491.031,389.87 492.5,394.5C 489.102,391.373 486.435,387.707 484.5,383.5 Z"/></g>
<g><path style="opacity:1" fill="#7cb56d" d="M 495.5,378.5 C 498.556,380.949 500.889,383.949 502.5,387.5C 501.178,387.67 500.011,387.337 499,386.5C 498.993,383.69 497.826,381.69 495.5,380.5C 495.5,379.833 495.5,379.167 495.5,378.5 Z"/></g>
<g><path style="opacity:1" fill="#82b772" d="M 147.5,384.5 C 147.5,384.833 147.5,385.167 147.5,385.5C 142.733,385.191 138.066,385.691 133.5,387C 131.963,388.11 131.297,389.61 131.5,391.5C 130.139,387.934 131.472,385.434 135.5,384C 139.524,383.503 143.524,383.669 147.5,384.5 Z"/></g>
<g><path style="opacity:1" fill="#66b64c" d="M 171.5,364.5 C 173.861,364.674 176.194,365.007 178.5,365.5C 179.605,366.6 180.938,367.267 182.5,367.5C 183.275,372.797 183.608,378.13 183.5,383.5C 182.36,385.78 181.193,388.114 180,390.5C 178.67,391.582 177.17,392.249 175.5,392.5C 174.359,391.661 173.026,390.994 171.5,390.5C 170.614,389.675 170.281,388.675 170.5,387.5C 165.156,387.334 159.823,387.501 154.5,388C 158.346,389.064 162.012,390.564 165.5,392.5C 164.5,392.833 163.5,393.167 162.5,393.5C 157.11,391.914 151.61,390.914 146,390.5C 143.411,390.851 140.911,391.518 138.5,392.5C 143.09,394.67 147.757,396.337 152.5,397.5C 150.167,397.5 147.833,397.5 145.5,397.5C 140.311,396.446 135.644,394.446 131.5,391.5C 131.297,389.61 131.963,388.11 133.5,387C 138.066,385.691 142.733,385.191 147.5,385.5C 153.505,386.906 159.505,386.739 165.5,385C 169.84,382.137 170.507,378.637 167.5,374.5C 168.496,374.414 169.329,374.748 170,375.5C 170.182,378.226 170.682,380.893 171.5,383.5C 172.012,381.149 173.012,379.149 174.5,377.5C 175.48,380.086 175.813,382.753 175.5,385.5C 177.288,385.785 178.955,385.452 180.5,384.5C 179.675,383.614 178.675,383.281 177.5,383.5C 177.067,378.167 176.567,372.834 176,367.5C 174.122,366.947 172.622,365.947 171.5,364.5 Z"/></g>
<g><path style="opacity:1" fill="#b5d5a9" d="M 225.5,386.5 C 225.5,386.833 225.5,387.167 225.5,387.5C 217.804,387.169 210.138,387.503 202.5,388.5C 202.229,391.047 201.229,393.047 199.5,394.5C 200.008,392.135 200.675,389.801 201.5,387.5C 209.472,386.502 217.472,386.169 225.5,386.5 Z"/></g>
<g><path style="opacity:1" fill="#6ab555" d="M 406.5,377.5 C 406.833,377.5 407.167,377.5 407.5,377.5C 407.328,378.492 407.662,379.158 408.5,379.5C 408.461,382.81 409.794,385.476 412.5,387.5C 416.315,388.808 419.981,388.808 423.5,387.5C 426.41,386.575 429.076,385.241 431.5,383.5C 432.043,383.56 432.376,383.893 432.5,384.5C 428.863,387.325 424.863,389.491 420.5,391C 418.287,391.626 416.12,391.459 414,390.5C 412.715,390.95 411.548,391.617 410.5,392.5C 408.754,390.146 406.421,389.146 403.5,389.5C 403.5,390.833 403.5,392.167 403.5,393.5C 400.703,393.033 399.369,391.367 399.5,388.5C 401.583,387.412 403.749,386.412 406,385.5C 406.497,382.854 406.664,380.187 406.5,377.5 Z"/></g>
<g><path style="opacity:1" fill="#6ab351" d="M 196.5,377.5 C 195.741,381.477 195.075,385.477 194.5,389.5C 197.288,389.923 199.288,388.923 200.5,386.5C 208.991,385.179 217.324,385.179 225.5,386.5C 217.472,386.169 209.472,386.502 201.5,387.5C 200.675,389.801 200.008,392.135 199.5,394.5C 199.167,395.5 198.5,396.167 197.5,396.5C 194.5,396.5 191.5,396.5 188.5,396.5C 188.629,394.784 188.962,393.117 189.5,391.5C 191.06,386.322 193.393,381.655 196.5,377.5 Z"/></g>
<g><path style="opacity:1" fill="#63b848" d="M 346.5,349.5 C 348.167,350.167 349.833,350.833 351.5,351.5C 352.072,353.255 352.906,354.922 354,356.5C 359.46,361.118 363.96,366.451 367.5,372.5C 367.393,377.434 369.56,379.434 374,378.5C 374.333,369.5 374.667,360.5 375,351.5C 377.481,349.686 380.315,349.02 383.5,349.5C 383.5,365.167 383.5,380.833 383.5,396.5C 376.643,398.322 372.309,395.988 370.5,389.5C 369.5,389.5 368.5,389.5 367.5,389.5C 362.188,381.915 356.521,374.582 350.5,367.5C 349.596,368.209 349.263,369.209 349.5,370.5C 348.507,378.65 348.174,386.983 348.5,395.5C 345.833,395.5 343.167,395.5 340.5,395.5C 340.5,380.167 340.5,364.833 340.5,349.5C 342.5,349.5 344.5,349.5 346.5,349.5 Z"/></g>
<g><path style="opacity:1" fill="#aed4a1" d="M 373.5,349.5 C 373.5,358.833 373.5,368.167 373.5,377.5C 370.858,377.512 369.525,376.179 369.5,373.5C 370.15,373.804 370.817,374.137 371.5,374.5C 372.167,366.01 372.833,357.676 373.5,349.5 Z"/></g>
<g><path style="opacity:1" fill="#cce7c4" d="M 439.5,383.5 C 439.099,390.219 435.766,394.553 429.5,396.5C 434.391,393.286 437.725,388.953 439.5,383.5 Z"/></g>
<g><path style="opacity:1" fill="#7fb269" d="M 403.5,393.5 C 407.342,395.351 411.342,396.684 415.5,397.5C 414.5,397.5 413.5,397.5 412.5,397.5C 408.584,398.039 405.584,396.706 403.5,393.5 Z"/></g>
<g><path style="opacity:1" fill="#61ba42" d="M 175.5,392.5 C 175.5,392.833 175.5,393.167 175.5,393.5C 167.997,395.6 160.33,396.933 152.5,397.5C 147.757,396.337 143.09,394.67 138.5,392.5C 140.911,391.518 143.411,390.851 146,390.5C 151.61,390.914 157.11,391.914 162.5,393.5C 163.5,393.167 164.5,392.833 165.5,392.5C 162.012,390.564 158.346,389.064 154.5,388C 159.823,387.501 165.156,387.334 170.5,387.5C 170.281,388.675 170.614,389.675 171.5,390.5C 173.026,390.994 174.359,391.661 175.5,392.5 Z"/></g>
<g><path style="opacity:1" fill="#92bc7f" d="M 189.5,391.5 C 188.962,393.117 188.629,394.784 188.5,396.5C 191.5,396.5 194.5,396.5 197.5,396.5C 194.375,397.479 191.042,397.813 187.5,397.5C 187.025,394.918 187.692,392.918 189.5,391.5 Z"/></g>
<g><path style="opacity:1" fill="#8bb474" d="M 239.5,393.5 C 241.104,394.287 241.771,395.62 241.5,397.5C 237.833,397.5 234.167,397.5 230.5,397.5C 229.833,397.5 229.5,397.167 229.5,396.5C 232.833,396.5 236.167,396.5 239.5,396.5C 239.5,395.5 239.5,394.5 239.5,393.5 Z"/></g>
<g><path style="opacity:1" fill="#8bbe7b" d="M 283.5,351.5 C 283.833,351.5 284.167,351.5 284.5,351.5C 284.778,353.346 284.111,354.68 282.5,355.5C 281.501,369.15 281.167,382.817 281.5,396.5C 292.588,396.83 303.588,396.163 314.5,394.5C 315.167,394.5 315.833,394.5 316.5,394.5C 316.5,395.167 316.167,395.5 315.5,395.5C 303.941,397.33 292.274,397.997 280.5,397.5C 279.174,383.328 279.174,368.994 280.5,354.5C 281.735,353.66 282.735,352.66 283.5,351.5 Z"/></g>
<g><path style="opacity:1" fill="#92bf86" d="M 373.5,348.5 C 373.5,348.167 373.5,347.833 373.5,347.5C 377.167,347.5 380.833,347.5 384.5,347.5C 384.5,363.833 384.5,380.167 384.5,396.5C 376.633,399.596 370.967,397.263 367.5,389.5C 368.5,389.5 369.5,389.5 370.5,389.5C 372.309,395.988 376.643,398.322 383.5,396.5C 383.5,380.833 383.5,365.167 383.5,349.5C 380.375,348.521 377.042,348.187 373.5,348.5 Z"/></g>
<g><path style="opacity:1" fill="#95c288" d="M 451.5,340.5 C 450.846,359.53 451.513,378.197 453.5,396.5C 457.226,396.823 460.893,396.489 464.5,395.5C 465.124,390.035 465.79,384.702 466.5,379.5C 466.5,385.5 466.5,391.5 466.5,397.5C 461.167,397.5 455.833,397.5 450.5,397.5C 450.5,378.833 450.5,360.167 450.5,341.5C 450.5,340.833 450.833,340.5 451.5,340.5 Z"/></g>
<g><path style="opacity:1" fill="#86b572" d="M 492.5,394.5 C 495.232,395.989 498.232,396.655 501.5,396.5C 503.952,396.461 505.952,395.794 507.5,394.5C 508.404,395.209 508.737,396.209 508.5,397.5C 503.167,397.5 497.833,397.5 492.5,397.5C 492.5,396.5 492.5,395.5 492.5,394.5 Z"/></g>
<g><path style="opacity:1" fill="#82b36b" d="M 175.5,393.5 C 165.954,398.296 155.954,399.63 145.5,397.5C 147.833,397.5 150.167,397.5 152.5,397.5C 160.33,396.933 167.997,395.6 175.5,393.5 Z"/></g>
<g><path style="opacity:1" fill="#dbf3d6" d="M 315.5,395.5 C 313.974,397.13 311.974,397.963 309.5,398C 300.983,398.273 292.483,398.773 284,399.5C 282.319,399.392 281.152,398.725 280.5,397.5C 292.274,397.997 303.941,397.33 315.5,395.5 Z"/></g>
<g><path style="opacity:1" fill="#a5c79a" d="M 429.5,396.5 C 426.474,398.019 423.141,398.685 419.5,398.5C 416.975,398.497 414.641,398.163 412.5,397.5C 413.5,397.5 414.5,397.5 415.5,397.5C 420.203,397.563 424.87,397.229 429.5,396.5 Z"/></g>
<g><path style="opacity:1" fill="#e8f1e0" d="M 303.5,413.5 C 301.75,416.355 300.917,419.689 301,423.5C 299.167,421 297.333,418.5 295.5,416C 294.207,415.51 292.873,415.343 291.5,415.5C 291.5,419.5 291.5,423.5 291.5,427.5C 290.836,425.022 290.503,422.355 290.5,419.5C 290.421,416.045 290.921,412.712 292,409.5C 293,410.167 294,410.833 295,411.5C 295.878,414.215 297.378,416.549 299.5,418.5C 300.466,416.604 300.799,414.604 300.5,412.5C 301.791,412.263 302.791,412.596 303.5,413.5 Z"/></g>
<g><path style="opacity:1" fill="#a8c49e" d="M 402.5,412.5 C 406.839,411.846 410.673,412.846 414,415.5C 415.036,418.68 414.203,421.18 411.5,423C 414.232,427.732 413.898,428.232 410.5,424.5C 408.955,423.548 407.288,423.215 405.5,423.5C 405.5,424.833 405.5,426.167 405.5,427.5C 404.5,427.5 403.5,427.5 402.5,427.5C 402.5,422.5 402.5,417.5 402.5,412.5 Z"/></g>
<g><path style="opacity:1" fill="#a4b699" d="M 423.5,413.5 C 424.805,415.397 425.471,417.731 425.5,420.5C 425.167,422.833 424.833,425.167 424.5,427.5C 423.507,422.88 423.173,418.214 423.5,413.5 Z"/></g>
<g><path style="opacity:1" fill="#a8bb9e" d="M 380.5,427.5 C 381.242,425.02 382.242,422.687 383.5,420.5C 384.939,418.412 385.606,416.079 385.5,413.5C 386.978,413.238 388.311,413.571 389.5,414.5C 390.49,418.646 392.157,422.479 394.5,426C 394.167,426.5 393.833,427 393.5,427.5C 392.271,425.082 390.271,424.082 387.5,424.5C 386.167,424.667 384.833,424.833 383.5,425C 382.922,426.417 381.922,427.25 380.5,427.5 Z"/></g>
<g><path style="opacity:1" fill="#8c9f81" d="M 323.5,426.5 C 320.713,427.477 317.713,427.81 314.5,427.5C 314.334,423.486 314.501,419.486 315,415.5C 315.499,419.152 315.665,422.818 315.5,426.5C 318.167,426.5 320.833,426.5 323.5,426.5 Z"/></g>
<g><path style="opacity:1" fill="#aab9a3" d="M 205.5,413.5 C 208.572,413.183 211.572,413.516 214.5,414.5C 211.914,415.48 209.247,415.813 206.5,415.5C 206.33,416.822 206.663,417.989 207.5,419C 209.871,419.735 212.205,420.568 214.5,421.5C 215.893,423.674 215.56,425.507 213.5,427C 210.294,427.89 207.294,427.557 204.5,426C 206.035,425.504 207.535,425.67 209,426.5C 211.97,425.978 212.804,424.478 211.5,422C 205.321,422 203.321,419.166 205.5,413.5 Z"/></g>
<g><path style="opacity:1" fill="#f1faec" d="M 260.5,427.5 C 260.5,426.167 260.5,424.833 260.5,423.5C 264.224,422.773 266.891,424.106 268.5,427.5C 269.347,425.939 269.014,424.439 267.5,423C 270.167,420 270.167,417 267.5,414C 264.518,413.502 261.518,413.335 258.5,413.5C 258.5,418.167 258.5,422.833 258.5,427.5C 257.812,422.433 257.145,417.267 256.5,412C 261.458,409.856 266.292,410.022 271,412.5C 271.578,416.721 272.411,420.888 273.5,425C 272.356,427.571 270.689,429.738 268.5,431.5C 267.218,429.821 266.218,427.987 265.5,426C 263.457,425.36 261.79,425.86 260.5,427.5 Z"/></g>
<g><path style="opacity:1" fill="#a5bf9c" d="M 223.5,413.5 C 224.5,413.5 225.5,413.5 226.5,413.5C 226.5,415.5 226.5,417.5 226.5,419.5C 229.167,419.5 231.833,419.5 234.5,419.5C 234.215,417.712 234.548,416.045 235.5,414.5C 236.833,418.833 236.833,423.167 235.5,427.5C 234.534,425.604 234.201,423.604 234.5,421.5C 231.5,421.5 228.5,421.5 225.5,421.5C 225.662,423.527 225.495,425.527 225,427.5C 223.775,422.915 223.275,418.248 223.5,413.5 Z"/></g>
<g><path style="opacity:1" fill="#a0ba8f" d="M 246.5,413.5 C 247.805,415.397 248.471,417.731 248.5,420.5C 248.167,422.833 247.833,425.167 247.5,427.5C 246.507,422.88 246.173,418.214 246.5,413.5 Z"/></g>
<g><path style="opacity:1" fill="#b3cca2" d="M 332.5,413.5 C 334.436,417.715 335.103,422.381 334.5,427.5C 333.5,427.5 332.5,427.5 331.5,427.5C 331.226,422.737 331.559,418.07 332.5,413.5 Z"/></g>
<g><path style="opacity:1" fill="#afc4a3" d="M 353.5,412.5 C 354.497,412.47 355.164,412.97 355.5,414C 354.742,416.576 353.409,418.743 351.5,420.5C 352.406,422.747 353.739,424.747 355.5,426.5C 355.167,426.833 354.833,427.167 354.5,427.5C 352.709,425.587 350.709,423.92 348.5,422.5C 346.469,423.539 345.136,425.205 344.5,427.5C 343.507,422.88 343.173,418.214 343.5,413.5C 344.5,413.5 345.5,413.5 346.5,413.5C 346.201,415.604 346.534,417.604 347.5,419.5C 350.026,417.582 352.026,415.249 353.5,412.5 Z"/></g>
<g><path style="opacity:1" fill="#edf8e8" d="M 405.5,415.5 C 407.527,415.338 409.527,415.505 411.5,416C 412.833,417.667 412.833,419.333 411.5,421C 409.527,421.495 407.527,421.662 405.5,421.5C 405.5,419.5 405.5,417.5 405.5,415.5 Z"/></g>
<g><path style="opacity:1" fill="#a1b395" d="M 279.5,414.5 C 280.117,414.611 280.617,414.944 281,415.5C 281.827,419.541 281.66,423.541 280.5,427.5C 279.508,423.217 279.174,418.884 279.5,414.5 Z"/></g>
<g><path style="opacity:1" fill="#a2be94" d="M 303.5,413.5 C 303.827,418.214 303.493,422.88 302.5,427.5C 299.862,424.526 297.195,421.526 294.5,418.5C 294.094,421.939 293.094,424.939 291.5,427.5C 291.5,423.5 291.5,419.5 291.5,415.5C 292.873,415.343 294.207,415.51 295.5,416C 297.333,418.5 299.167,421 301,423.5C 300.917,419.689 301.75,416.355 303.5,413.5 Z"/></g>
<g><path style="opacity:1" fill="#cbdac2" d="M 323.5,426.5 C 320.833,426.5 318.167,426.5 315.5,426.5C 315.665,422.818 315.499,419.152 315,415.5C 314.501,419.486 314.334,423.486 314.5,427.5C 313.186,422.652 313.186,417.652 314.5,412.5C 315.086,412.709 315.586,413.043 316,413.5C 316.499,417.486 316.666,421.486 316.5,425.5C 319.059,425.198 321.393,425.532 323.5,426.5 Z"/></g>
<g><path style="opacity:1" fill="#e1f6d9" d="M 386.5,416.5 C 388.513,417.475 389.846,419.142 390.5,421.5C 388.579,422.641 386.579,422.808 384.5,422C 385.464,420.275 386.131,418.441 386.5,416.5 Z"/></g>
<g><path style="opacity:1" fill="#a5bd99" d="M 260.5,427.5 C 259.833,427.5 259.167,427.5 258.5,427.5C 258.5,422.833 258.5,418.167 258.5,413.5C 261.518,413.335 264.518,413.502 267.5,414C 270.167,417 270.167,420 267.5,423C 269.014,424.439 269.347,425.939 268.5,427.5C 266.891,424.106 264.224,422.773 260.5,423.5C 260.5,424.833 260.5,426.167 260.5,427.5 Z"/></g>
<g><path style="opacity:1" fill="#ecf7e7" d="M 260.5,415.5 C 262.833,415.5 265.167,415.5 267.5,415.5C 268.265,420.906 265.931,422.906 260.5,421.5C 260.5,419.5 260.5,417.5 260.5,415.5 Z"/></g>
<g><path style="opacity:1" fill="#eff8ed" d="M 383.5,420.5 C 382.242,422.687 381.242,425.02 380.5,427.5C 379.07,427.579 377.736,427.246 376.5,426.5C 374.512,427.289 374.179,428.455 375.5,430C 373.019,431.325 370.519,431.825 368,431.5C 366.54,429.578 364.873,428.911 363,429.5C 362.167,428 361,426.833 359.5,426C 361.301,425.683 361.634,425.016 360.5,424C 361.658,422.991 362.325,421.658 362.5,420C 360.362,414.971 362.029,412.471 367.5,412.5C 367.177,416.226 367.511,419.893 368.5,423.5C 370.833,424.167 373.167,424.833 375.5,425.5C 376.333,424.5 377.167,423.5 378,422.5C 378.333,422.833 378.667,423.167 379,423.5C 380.271,422.117 381.771,421.117 383.5,420.5 Z"/></g>
<g><path style="opacity:1" fill="#9fb29a" d="M 364.5,413.5 C 366.43,417.373 367.097,421.706 366.5,426.5C 368.857,426.337 371.19,426.503 373.5,427C 370.518,427.498 367.518,427.665 364.5,427.5C 364.5,422.833 364.5,418.167 364.5,413.5 Z"/></g>
</svg>
